<?xml version="1.0" standalone="yes"?>
<svg xmlns="http://www.w3.org/2000/svg" width="217" height="212">
<path style="fill:#070506; stroke:none;" d="M0 0C5.70729 2.39487 13.846 1 20 1L64 1L217 1C211.293 -1.39487 203.154 0 197 0L153 0L0 0z"/>
<path style="fill:#000000; stroke:none;" d="M0 1L0 212L217 212L217 1L0 1z"/>
<path style="fill:#06202d; stroke:none;" d="M197.667 9.33333C197.222 9.77777 198.278 9.72223 198.333 9.66667C198.778 9.2222 197.722 9.27777 197.667 9.33333z"/>
<path style="fill:#0e132f; stroke:none;" d="M4 13L7 11C4.8603 9.88225 4.47325 10.7492 4 13z"/>
<path style="fill:#105072; stroke:none;" d="M197 10L198 13C198.685 11.7515 198.749 11.4516 199 10L197 10z"/>
<path style="fill:#061f2c; stroke:none;" d="M199 10L199 13C199.696 11.4463 199.696 11.5537 199 10z"/>
<path style="fill:#242d71; stroke:none;" d="M5 11C6.43506 13.5236 7.0955 13.8995 10 14C8.28272 12.1602 7.43434 11.6514 5 11z"/>
<path style="fill:#0f4c6c; stroke:none;" d="M195 11L195 13C196.635 12.455 196.455 12.6351 197 11L195 11z"/>
<path style="fill:#1f84c6; stroke:none;" d="M197 11C190.738 16.0306 181.691 19.6011 178 27C180.474 30.2659 180 34.0101 180 38C185.926 33.9611 189.393 24.9522 193.369 19.0247C195.129 16.4001 197.498 14.2233 197 11z"/>
<path style="fill:#0a0e21; stroke:none;" d="M9 12C10.4498 13.6076 11.0514 14.0643 13 15C11.5502 13.3924 10.9485 12.9357 9 12z"/>
<path style="fill:#092b3e; stroke:none;" d="M193.667 12.3333C193.222 12.7778 194.278 12.7222 194.333 12.6667C194.778 12.2222 193.722 12.2778 193.667 12.3333z"/>
<path style="fill:#0f4c6f; stroke:none;" d="M191 15C192.58 14.3165 192.777 14.1951 194 13C192.42 13.6836 192.223 13.8048 191 15z"/>
<path style="fill:#092d40; stroke:none;" d="M197 13L197 15C198.635 14.455 198.455 14.6351 199 13L197 13z"/>
<path style="fill:#0b0e23; stroke:none;" d="M6 14C6.68356 15.58 6.80484 15.7772 8 17C7.3164 15.4199 7.19521 15.2228 6 14z"/>
<path style="fill:#2855a4; stroke:none;" d="M8 14C11.5967 23.6925 18.6799 31.9651 23.5355 41.0394C26.8372 47.2097 28.779 54.4404 31.1165 61C32.3835 64.5555 32.3834 69.2059 31.7407 72.9105C31.3574 75.12 29.7895 77.5495 31.0818 79.7361C32.9819 82.9511 39.6627 83.931 43 85C38.9113 73.7814 41 59.8258 41 48C41 44.1436 42.5297 36.8965 40 34C42.2206 33.6096 43.754 33.6646 46 34C40.687 29.7559 32.9893 27.8435 27.0008 24.4306C20.7289 20.8562 15.3063 15.1643 8 14z"/>
<path style="fill:#1b2356; stroke:none;" d="M8.33333 15.6667C8.2778 15.7222 8.22221 16.7778 8.66667 16.3333C8.72226 16.2777 8.77778 15.2222 8.33333 15.6667z"/>
<path style="fill:#166694; stroke:none;" d="M190 15L190 17C191.635 16.455 191.455 16.6351 192 15L190 15z"/>
<path style="fill:#0c3a54; stroke:none;" d="M195 15C193.362 18.0005 191.783 20.6628 191 24C193.577 21.3077 195.407 18.3654 197 15L195 15z"/>
<path style="fill:#0d142e; stroke:none;" d="M14.6667 16.3333C14.2222 16.7778 15.2778 16.7222 15.3333 16.6667C15.7778 16.2222 14.7222 16.2778 14.6667 16.3333z"/>
<path style="fill:#0d3753; stroke:none;" d="M184 20L190 17C187.03 16.3018 185.579 17.4888 184 20z"/>
<path style="fill:#101a39; stroke:none;" d="M16 17C17.2228 18.1952 17.42 18.3164 19 19C17.7772 17.8048 17.58 17.6836 16 17z"/>
<path style="fill:#121d40; stroke:none;" d="M20 20C21.6631 21.5034 22.896 22.1986 25 23C23.2827 21.1602 22.4343 20.6514 20 20z"/>
<path style="fill:#0a2a3f; stroke:none;" d="M180 22L183 21C181.222 20.0446 180.979 20.2338 180 22z"/>
<path style="fill:#1c70aa; stroke:none;" d="M180 23C181.58 22.3164 181.777 22.1951 183 21C181.42 21.6836 181.223 21.8047 180 23z"/>
<path style="fill:#141e46; stroke:none;" d="M12.3333 22.6667C12.2778 22.7222 12.2222 23.7778 12.6667 23.3333C12.7223 23.2777 12.7778 22.2222 12.3333 22.6667z"/>
<path style="fill:#0f3d5f; stroke:none;" d="M176 23C177.659 23.4065 178.242 23.3086 180 23C178.191 22.4257 177.931 22.5347 176 23z"/>
<path style="fill:#132146; stroke:none;" d="M25.6667 23.3333C25.2222 23.7778 26.2778 23.7222 26.3333 23.6667C26.7778 23.2222 25.7222 23.2778 25.6667 23.3333z"/>
<path style="fill:#1a659c; stroke:none;" d="M176 24C177.809 24.5743 178.069 24.4653 180 24C178.341 23.5935 177.758 23.6914 176 24z"/>
<path style="fill:#1b3469; stroke:none;" d="M26 24C27.2483 24.6848 27.5485 24.7488 29 25C27.7516 24.3152 27.4516 24.2512 26 24z"/>
<path style="fill:#124165; stroke:none;" d="M174 24L174 26C175.635 25.4549 175.455 25.6352 176 24L174 24z"/>
<path style="fill:#0f4667; stroke:none;" d="M189 24L188 28C189.434 26.6074 190.045 25.7672 191 24L189 24z"/>
<path style="fill:#17224e; stroke:none;" d="M14 25C14.4057 27.0924 14.2167 27.0197 16 28C15.3086 26.6115 15.0155 26.1394 14 25z"/>
<path style="fill:#0e1c38; stroke:none;" d="M29.6667 25.3333C29.2222 25.7778 30.2778 25.7222 30.3333 25.6667C30.7778 25.2222 29.7222 25.2778 29.6667 25.3333z"/>
<path style="fill:#081d2e; stroke:none;" d="M171 25C172.248 25.6848 172.548 25.7488 174 26C172.752 25.3152 172.452 25.2512 171 25z"/>
<path style="fill:#2179be; stroke:none;" d="M165 31C166.248 31.6848 166.548 31.7488 168 32C168 48.2039 169.111 64.8515 168 81L173 81C172.635 72.5046 171.513 65.4526 174.075 57.0895C176.136 50.3606 181.018 43.8076 182 37L180 38C180 34.7561 181.1 28.6512 178.146 26.3719C175.226 24.1188 167.597 29.3371 165 31z"/>
<path style="fill:#1c376e; stroke:none;" d="M30 26C31.1393 27.0154 31.6116 27.3087 33 28C32.0197 26.2167 32.0924 26.4057 30 26z"/>
<path style="fill:#1a6098; stroke:none;" d="M169 29L175 27C172.186 26.0875 171.017 26.9265 169 29z"/>
<path style="fill:#05111b; stroke:none;" d="M166 29L170 28C167.954 27.2489 167.404 27.3444 166 29z"/>
<path style="fill:#155d8b; stroke:none;" d="M187 27L187 30C187.696 28.4463 187.696 28.5537 187 27z"/>
<path style="fill:#15446f; stroke:none;" d="M165 29C166.809 29.5743 167.069 29.4653 169 29C167.341 28.5935 166.758 28.6914 165 29z"/>
<path style="fill:#131f45; stroke:none;" d="M16 29C16.6836 30.58 16.8048 30.7772 18 32C17.3164 30.42 17.1952 30.2228 16 29z"/>
<path style="fill:#173362; stroke:none;" d="M36.6667 29.3333C36.2222 29.7778 37.2778 29.7222 37.3333 29.6667C37.7778 29.2222 36.7222 29.2778 36.6667 29.3333z"/>
<path style="fill:#071624; stroke:none;" d="M162 29C163.248 29.6848 163.548 29.7488 165 30C163.752 29.3152 163.452 29.2512 162 29z"/>
<path style="fill:#1a3d72; stroke:none;" d="M39 30C40.2228 31.1952 40.42 31.3164 42 32C40.7772 30.8048 40.58 30.6836 39 30z"/>
<path style="fill:#0e2e4e; stroke:none;" d="M159 31C160.809 31.5743 161.069 31.4653 163 31C161.341 30.5935 160.758 30.6914 159 31z"/>
<path style="fill:#2370b8; stroke:none;" d="M158 32C157.316 33.5801 157.195 33.7772 156 35C158.74 39.9273 158 45.5159 158 51C158 61.9759 159.55 74.2877 157 85C161.313 84.8727 164.98 83.4744 169 82C166.383 65.776 168 48.4111 168 32C166.42 31.3164 166.223 31.1952 165 30L158 32z"/>
<path style="fill:#0b3048; stroke:none;" d="M186 30L186 32C187.635 31.455 187.455 31.6352 188 30L186 30z"/>
<path style="fill:#102748; stroke:none;" d="M42.6667 31.3333C42.2222 31.7778 43.2778 31.7222 43.3333 31.6667C43.7778 31.2222 42.7222 31.2778 42.6667 31.3333z"/>
<path style="fill:#091b2d; stroke:none;" d="M155 32C156.809 32.5743 157.069 32.4653 159 32C157.191 31.4257 156.931 31.5347 155 32z"/>
<path style="fill:#14547d; stroke:none;" d="M185 31L185 34C185.696 32.4463 185.696 32.5537 185 31z"/>
<path style="fill:#0a1023; stroke:none;" d="M17 32L19 37C19.5661 34.4913 18.8476 33.7802 17 32z"/>
<path style="fill:#112c4d; stroke:none;" d="M45 32C47.0566 33.5819 48.3875 33.8256 51 34C49.031 32.9372 47.2016 32.4679 45 32z"/>
<path style="fill:#2565b0; stroke:none;" d="M40 33C42.0153 36.2244 41 41.1023 41 45L41 71C41 74.5807 40.0519 79.7836 41.8333 83C43.9157 86.7599 50.0321 88.6867 54 89L54 93C49.5193 94.4396 46.6489 98.2277 44 102L54 102L53 100L58 100C57.7524 88.0063 57 76.0551 57 64C57 55.4821 57.9819 46.3245 56 38L70 38C65.9136 36.2853 61.3461 37.3744 57.0039 36.696C51.1948 35.7883 45.9992 33.4734 40 33z"/>
<path style="fill:#081322; stroke:none;" d="M148 34C149.809 34.5743 150.069 34.4653 152 34C150.341 33.5935 149.758 33.6914 148 34z"/>
<path style="fill:#0f2947; stroke:none;" d="M152 33C153.248 33.6848 153.549 33.7488 155 34C153.752 33.3152 153.452 33.2512 152 33z"/>
<path style="fill:#163f6c; stroke:none;" d="M155 33C156.248 33.6848 156.549 33.7488 158 34C156.752 33.3152 156.452 33.2512 155 33z"/>
<path style="fill:#1b72ac; stroke:none;" d="M183 33L183 37C183.911 35.6234 184.404 34.5601 185 33L183 33z"/>
<path style="fill:#153d69; stroke:none;" d="M51 34C52.314 35.6179 52.8772 35.6933 55 36C53.542 34.9189 52.752 34.5639 51 34z"/>
<path style="fill:#1e4f8b; stroke:none;" d="M150 36C151.58 35.3165 151.777 35.1951 153 34C151.42 34.6836 151.223 34.8048 150 36z"/>
<path style="fill:#2563ae; stroke:none;" d="M145 38C148.046 45.1883 147 53.3233 147 61C147 74.4176 148.454 88.7811 146 102L160 103L160 99C157.476 97.8828 150.085 93.8629 151.346 90.304C152.476 87.113 158.209 86.4184 161 86C159.494 85.317 158.685 85.1741 157 85C158.671 81.6589 158 76.988 158 73L158 47C158 43.4978 158.575 39.4475 158 36L156 35L158 35C153.658 33.3569 149.013 36.1907 145 38z"/>
<path style="fill:#0a2a40; stroke:none;" d="M184.333 34.6667C184.278 34.7222 184.222 35.7778 184.667 35.3333C184.722 35.2778 184.778 34.2222 184.333 34.6667z"/>
<path style="fill:#0b243a; stroke:none;" d="M55 35C59.4715 36.8763 65.1833 36 70 36C65.5285 34.1237 59.8166 35 55 35z"/>
<path style="fill:#144972; stroke:none;" d="M70 35C71.9407 35.9509 73.8975 36.4394 76 37C74.266 34.9966 72.6451 35.077 70 35z"/>
<path style="fill:#172d5a; stroke:none;" d="M128 37L132 36C129.954 35.2489 129.404 35.3444 128 37z"/>
<path style="fill:#0c1a32; stroke:none;" d="M132 35C136.471 36.8763 142.183 36 147 36C142.529 34.1237 136.817 35 132 35z"/>
<path style="fill:#15345e; stroke:none;" d="M147 35C148.248 35.6848 148.549 35.7488 150 36C148.752 35.3152 148.452 35.2512 147 35z"/>
<path style="fill:#174a79; stroke:none;" d="M55 36C59.4714 37.8763 65.1834 37 70 37C65.5285 35.1237 59.8166 36 55 36z"/>
<path style="fill:#2178be; stroke:none;" d="M65 38C65 56.0599 64.7726 74.0063 64 92C70.662 86.2926 74.768 77.8389 83 74C83.5601 69.5683 83.0287 63.5746 87 61C82.8016 56.097 80.3765 51.1083 78.3403 45C77.4371 42.2906 76.848 37.8333 73.811 36.6574C71.2678 35.6727 67.6088 37.6678 65 38z"/>
<path style="fill:#0e1a35; stroke:none;" d="M127 36L127 39C127.696 37.4463 127.696 37.5537 127 36z"/>
<path style="fill:#294fa0; stroke:none;" d="M123 75C129.48 78.7831 133.039 84.8364 137 91C138.125 87.3427 137.006 82.8797 137 79L137 52C137 47.9317 138.259 41.8481 135 39C138.041 38.1004 140.831 38.008 144 38C141.962 37.1448 140.228 37.0697 137.995 36.9884C135.55 36.8994 131.72 35.7608 129.514 37.1173C127.17 38.5587 126.772 42.6088 125.975 45C122.786 54.5757 124.258 65.0466 123 75z"/>
<path style="fill:#19376a; stroke:none;" d="M132 36C135.697 37.5515 140.017 37 144 37C140.303 35.4485 135.983 36 132 36z"/>
<path style="fill:#275ba9; stroke:none;" d="M135 38C138.744 44.7328 137 54.4919 137 62C137 70.1938 136.195 78.8713 137.29 87C137.978 92.1028 140.005 96.9437 141 102C148.643 101.39 147 93.9899 147 88L147 55C147 49.182 147.797 43.2411 145 38L149 37C144.984 35.4336 139.455 37.9848 135 38z"/>
<path style="fill:#162551; stroke:none;" d="M21 37L21 40C21.6961 38.4463 21.6961 38.5537 21 37z"/>
<path style="fill:#0e3854; stroke:none;" d="M182 37L182 39C183.635 38.4549 183.455 38.6352 184 37L182 37z"/>
<path style="fill:#233b80; stroke:none;" d="M22 38L23 42C23.393 40.076 23.1456 39.6405 22 38z"/>
<path style="fill:#236fb7; stroke:none;" d="M56 38C57.7021 47.1681 57 56.7046 57 66C57 77.4127 57.5124 88.644 58 100L53 100C56.0398 102.303 59.2675 101.997 63 102L66 90C64.7003 90.6498 65 90.1468 65 92C63.8472 86.6795 65 80.5096 65 75L65 38L56 38z"/>
<path style="fill:#144e77; stroke:none;" d="M77 39C77.0941 41.2049 77.3562 42.8941 78 45C78.5515 42.6405 78.1377 41.1462 77 39z"/>
<path style="fill:#244088; stroke:none;" d="M126 39C125.495 43.1246 123.872 46.937 123 51C125.915 47.5617 126.851 43.3031 128 39L126 39z"/>
<path style="fill:#071d2c; stroke:none;" d="M182.333 39.6667C182.278 39.7222 182.222 40.7778 182.667 40.3333C182.722 40.2777 182.778 39.2223 182.333 39.6667z"/>
<path style="fill:#090f20; stroke:none;" d="M21 40C21.6836 41.58 21.8048 41.7772 23 43C22.3164 41.42 22.1952 41.2228 21 40z"/>
<path style="fill:#05121c; stroke:none;" d="M78 40L79 45C79.6514 42.7659 79.3182 41.9261 78 40z"/>
<path style="fill:#0f1a38; stroke:none;" d="M125 41L124 45C125.303 43.3324 125.553 43.0078 125 41z"/>
<path style="fill:#103f62; stroke:none;" d="M180 41L180 43C181.635 42.455 181.455 42.6351 182 41L180 41z"/>
<path style="fill:#1b3167; stroke:none;" d="M23 42L25 49C26.1686 45.8973 25.3021 44.2514 23 42z"/>
<path style="fill:#175d8e; stroke:none;" d="M179 43L178 47C179.146 45.3596 179.393 44.924 179 43z"/>
<path style="fill:#11466a; stroke:none;" d="M79 45L79 48C79.6961 46.4463 79.6961 46.5537 79 45z"/>
<path style="fill:#082031; stroke:none;" d="M179.333 45.6667C179.278 45.7222 179.222 46.7778 179.667 46.3333C179.722 46.2778 179.778 45.2222 179.333 45.6667z"/>
<path style="fill:#051520; stroke:none;" d="M80 46L81 50C81.553 47.9922 81.303 47.6676 80 46z"/>
<path style="fill:#091021; stroke:none;" d="M123 46L122 50C123.303 48.3324 123.553 48.0078 123 46z"/>
<path style="fill:#134a73; stroke:none;" d="M178 47C176.663 49.4787 176.184 51.19 176 54C177.369 51.6876 178.333 49.662 178 47z"/>
<path style="fill:#176092; stroke:none;" d="M79 48C79.6836 49.58 79.8048 49.7772 81 51C80.3164 49.42 80.1952 49.2228 79 48z"/>
<path style="fill:#0d415e; stroke:none;" d="M94 50L98 49C95.9535 48.2489 95.4043 48.3444 94 50z"/>
<path style="fill:#08283a; stroke:none;" d="M98 48L98 69C100.153 63.8693 100.153 53.1308 98 48z"/>
<path style="fill:#0f122f; stroke:none;" d="M105 48L105 69C107.501 63.04 103.013 52.8811 109 49C107.494 48.317 106.685 48.1741 105 48z"/>
<path style="fill:#0a1224; stroke:none;" d="M26 49L26 53C26.7102 51.2405 26.7102 50.7595 26 49z"/>
<path style="fill:#1d3770; stroke:none;" d="M27 49L27 54C27.8299 51.9695 27.8299 51.0305 27 49z"/>
<path style="fill:#1571a1; stroke:none;" d="M95 49C98.2596 54.8612 97 62.476 97 69C99.398 63.2854 98 55.1692 98 49L95 49z"/>
<path style="fill:#272e78; stroke:none;" d="M106 49L106 69L111 70C109.686 68.3821 109.123 68.3067 107 68L107 50L111 52C109.554 49.7173 108.689 49.4176 106 49z"/>
<path style="fill:#071d2d; stroke:none;" d="M178 49C177.014 50.4785 177 50.2032 177 52C178.289 50.5574 178.401 50.7663 178 49z"/>
<path style="fill:#0e3a59; stroke:none;" d="M81.3333 50.6667C81.2778 50.7222 81.2222 51.7778 81.6667 51.3333C81.7223 51.2777 81.7777 50.2223 81.3333 50.6667z"/>
<path style="fill:#0d405c; stroke:none;" d="M92 50L92 52C93.6351 51.455 93.4549 51.6351 94 50L92 50z"/>
<path style="fill:#1e8acb; stroke:none;" d="M84 61C83.9896 64.7626 83.687 68.2995 83 72C87.7361 71.0245 92.1285 69.3882 97 69L97 50C91.1217 51.7967 89.243 58.1969 84 61z"/>
<path style="fill:#2c4196; stroke:none;" d="M107 50L107 68C112.526 69.2357 117.89 71.5732 123 74C124.767 66.5766 124 58.5932 124 51C123.03 52.2789 122.19 53.7442 121.14 54.956C116.133 60.735 111.84 51.9763 107 50z"/>
<path style="fill:#1d2f68; stroke:none;" d="M122 50L121 55C122.475 53.0648 122.791 52.3073 122 50z"/>
<path style="fill:#175f8f; stroke:none;" d="M81.3333 52.6667C81.2778 52.7222 81.2222 53.7778 81.6667 53.3333C81.7223 53.2777 81.7777 52.2223 81.3333 52.6667z"/>
<path style="fill:#0e3b58; stroke:none;" d="M82.3333 52.6667C82.2778 52.7222 82.2222 53.7778 82.6667 53.3333C82.7223 53.2777 82.7777 52.2223 82.3333 52.6667z"/>
<path style="fill:#115278; stroke:none;" d="M88 58C90.0796 56.1583 91.5091 54.3497 93 52C90.0822 53.5169 89.0777 54.8926 88 58z"/>
<path style="fill:#1f2963; stroke:none;" d="M112.333 52.6667C112.278 52.7222 112.222 53.7778 112.667 53.3333C112.722 53.2777 112.778 52.2223 112.333 52.6667z"/>
<path style="fill:#101a3a; stroke:none;" d="M120 52L120 57C120.924 55.3518 121.449 53.8251 122 52L120 52z"/>
<path style="fill:#071f2e; stroke:none;" d="M83 53L83 58L88 58C86.4939 57.317 85.6852 57.1741 84 57C83.8259 55.3148 83.683 54.506 83 53z"/>
<path style="fill:#0b152c; stroke:none;" d="M27.3333 54.6667C27.2778 54.7222 27.2222 55.7778 27.6667 55.3333C27.7222 55.2778 27.7778 54.2222 27.3333 54.6667z"/>
<path style="fill:#172b59; stroke:none;" d="M28.3333 54.6667C28.2778 54.7222 28.2222 55.7778 28.6667 55.3333C28.7222 55.2778 28.7778 54.2222 28.3333 54.6667z"/>
<path style="fill:#166090; stroke:none;" d="M82.3333 54.6667C82.2778 54.7222 82.2222 55.7778 82.6667 55.3333C82.7223 55.2777 82.7777 54.2223 82.3333 54.6667z"/>
<path style="fill:#222f6f; stroke:none;" d="M113 54C113.684 55.58 113.805 55.7772 115 57C114.316 55.42 114.195 55.2228 113 54z"/>
<path style="fill:#165281; stroke:none;" d="M174 54L173 64C174.838 60.9363 175.15 57.4498 176 54L174 54z"/>
<path style="fill:#092234; stroke:none;" d="M176 54C175.014 55.4785 175 55.2032 175 57C176.289 55.5574 176.401 55.7663 176 54z"/>
<path style="fill:#080f1f; stroke:none;" d="M28 56C28.0081 59.1691 28.1004 61.9592 29 65C30.1043 61.9203 29.4038 58.9216 28 56z"/>
<path style="fill:#070c1b; stroke:none;" d="M115 57C116.769 57.7789 118.036 57.9124 120 58C118.231 57.2211 116.964 57.0876 115 57z"/>
<path style="fill:#254991; stroke:none;" d="M29 58C30.275 64.2104 31 69.6102 31 76C33.1633 70.8445 33.0769 61.9924 29 58z"/>
<path style="fill:#0f4465; stroke:none;" d="M84 58C85.2484 58.6848 85.5484 58.7488 87 59C85.7517 58.3152 85.4515 58.2512 84 58z"/>
<path style="fill:#172451; stroke:none;" d="M117.667 58.3333C117.222 58.7778 118.278 58.7222 118.333 58.6667C118.778 58.2223 117.722 58.2777 117.667 58.3333z"/>
<path style="fill:#176b9e; stroke:none;" d="M85.6667 59.3333C85.2222 59.7778 86.2778 59.7222 86.3333 59.6667C86.7778 59.2222 85.7222 59.2778 85.6667 59.3333z"/>
<path style="fill:#081e31; stroke:none;" d="M174 61C173.18 65.4162 171.261 72.7327 175 76C174.404 71.2786 175.533 65.2747 174 61z"/>
<path style="fill:#101e3c; stroke:none;" d="M30 62L30 76C31.6668 72.0279 31.6668 65.9721 30 62z"/>
<path style="fill:#1a5f96; stroke:none;" d="M172 62L172 76C173.667 72.0279 173.667 65.9721 172 62z"/>
<path style="fill:#115276; stroke:none;" d="M92.6667 69.3333C92.2222 69.7778 93.2778 69.7222 93.3333 69.6667C93.7778 69.2222 92.7222 69.2778 92.6667 69.3333z"/>
<path style="fill:#0b354c; stroke:none;" d="M94 69C95.2484 69.6848 95.5484 69.7488 97 70C95.7517 69.3152 95.4515 69.2512 94 69z"/>
<path style="fill:#166090; stroke:none;" d="M83 74L90 71C86.9134 70.2495 84.8076 71.4571 83 74z"/>
<path style="fill:#104e72; stroke:none;" d="M90.6667 70.3333C90.2222 70.7778 91.2778 70.7222 91.3333 70.6667C91.7778 70.2222 90.7222 70.2778 90.6667 70.3333z"/>
<path style="fill:#082a3d; stroke:none;" d="M92.6667 70.3333C92.2222 70.7778 93.2778 70.7222 93.3333 70.6667C93.7778 70.2222 92.7222 70.2778 92.6667 70.3333z"/>
<path style="fill:#0e132f; stroke:none;" d="M109.667 70.3333C109.222 70.7778 110.278 70.7222 110.333 70.6667C110.778 70.2222 109.722 70.2778 109.667 70.3333z"/>
<path style="fill:#223071; stroke:none;" d="M111 70C112.769 70.7789 114.036 70.9124 116 71C114.231 70.2211 112.964 70.0876 111 70z"/>
<path style="fill:#0c1129; stroke:none;" d="M113 71C114.458 72.0811 115.248 72.4361 117 73C115.457 71.7333 114.952 71.5108 113 71z"/>
<path style="fill:#1a285b; stroke:none;" d="M116 71C117.223 72.1951 117.42 72.3164 119 73C117.777 71.8048 117.58 71.6836 116 71z"/>
<path style="fill:#24397d; stroke:none;" d="M119 72C120.45 73.6076 121.051 74.0643 123 75C121.55 73.3924 120.949 72.9357 119 72z"/>
<path style="fill:#0e3c5b; stroke:none;" d="M78 77C79.9485 76.0643 80.5502 75.6076 82 74C80.0514 74.9357 79.4498 75.3924 78 77z"/>
<path style="fill:#082030; stroke:none;" d="M82.6667 74.3333C82.2222 74.7778 83.2778 74.7222 83.3333 74.6667C83.7778 74.2222 82.7222 74.2778 82.6667 74.3333z"/>
<path style="fill:#0e2c36; stroke:none;" d="M96 74C98.8897 75.2129 101.874 74.9983 105 75C102.11 73.7871 99.1259 74.0017 96 74z"/>
<path style="fill:#154452; stroke:none;" d="M96.6667 75.3333C96.2222 75.7778 97.2778 75.7222 97.3333 75.6667C97.7778 75.2222 96.7222 75.2778 96.6667 75.3333z"/>
<path style="fill:#236e86; stroke:none;" d="M98 75C100.332 75.9845 102.457 75.9813 105 76C102.668 75.0155 100.543 75.0187 98 75z"/>
<path style="fill:#14404e; stroke:none;" d="M105.667 75.3333C105.222 75.7778 106.278 75.7222 106.333 75.6667C106.778 75.2222 105.722 75.2778 105.667 75.3333z"/>
<path style="fill:#1b2f64; stroke:none;" d="M123 75C124.223 76.1951 124.42 76.3164 126 77C124.777 75.8048 124.58 75.6836 123 75z"/>
<path style="fill:#070e1c; stroke:none;" d="M28 76L28 81C28.8299 78.9695 28.8299 78.0305 28 76z"/>
<path style="fill:#193061; stroke:none;" d="M29 76C29.2206 79.0065 29.4547 80.3655 32 82L29 76z"/>
<path style="fill:#164555; stroke:none;" d="M90.6667 76.3333C90.2222 76.7778 91.2778 76.7222 91.3333 76.6667C91.7778 76.2222 90.7222 76.2778 90.6667 76.3333z"/>
<path style="fill:#1e5e73; stroke:none;" d="M92 76C93.2484 76.6848 93.5484 76.7488 95 77C93.7517 76.3152 93.4515 76.2512 92 76z"/>
<path style="fill:#33a0c3; stroke:none;" d="M95 76C98.1633 77.3274 101.586 76.9996 105 77C101.837 75.6726 98.4144 76.0004 95 76z"/>
<path style="fill:#2a86a3; stroke:none;" d="M105 76C106.248 76.6848 106.548 76.7488 108 77C106.752 76.3152 106.452 76.2512 105 76z"/>
<path style="fill:#20667c; stroke:none;" d="M108 76C109.248 76.6848 109.548 76.7488 111 77C109.752 76.3152 109.452 76.2512 108 76z"/>
<path style="fill:#14404f; stroke:none;" d="M111.667 76.3333C111.222 76.7778 112.278 76.7223 112.333 76.6667C112.778 76.2222 111.722 76.2778 111.667 76.3333z"/>
<path style="fill:#1b649c; stroke:none;" d="M173 76L173 81C173.83 78.9695 173.83 78.0305 173 76z"/>
<path style="fill:#113e60; stroke:none;" d="M174 76L174 81C174.83 78.9695 174.83 78.0305 174 76z"/>
<path style="fill:#12496f; stroke:none;" d="M77 77L78 78L77 77z"/>
<path style="fill:#20637a; stroke:none;" d="M89.6667 77.3333C89.2222 77.7778 90.2778 77.7222 90.3333 77.6667C90.7778 77.2222 89.7222 77.2778 89.6667 77.3333z"/>
<path style="fill:#3fc6f1; stroke:none;" d="M91 77.7539C72.8036 83.3993 64.9881 107.827 74.6489 123.896C81.7236 135.663 98.1251 141.381 111 137.427C133.921 130.388 141.376 97.4145 121.482 82.4537C116.075 78.3874 108.603 77.033 102 77.0008C98.3661 76.983 94.5138 76.6637 91 77.7539z"/>
<path style="fill:#36a9ce; stroke:none;" d="M109 77C110.693 78.0623 112.04 78.5196 114 79C112.212 77.5785 111.294 77.3026 109 77z"/>
<path style="fill:#103540; stroke:none;" d="M113.667 77.3333C113.222 77.7778 114.278 77.7222 114.333 77.6667C114.778 77.2222 113.722 77.2778 113.667 77.3333z"/>
<path style="fill:#213e80; stroke:none;" d="M126 77C127.45 78.6076 128.051 79.0643 130 80C128.55 78.3924 127.949 77.9357 126 77z"/>
<path style="fill:#061825; stroke:none;" d="M74 82C75.7525 80.6697 76.6697 79.7525 78 78C75.7511 79.1535 75.1535 79.7511 74 82z"/>
<path style="fill:#21687e; stroke:none;" d="M85 80C86.58 79.3164 86.7772 79.1952 88 78C86.42 78.6836 86.2228 78.8048 85 80z"/>
<path style="fill:#2b87a5; stroke:none;" d="M88.6667 78.3333C88.2222 78.7778 89.2778 78.7222 89.3333 78.6667C89.7777 78.2222 88.7222 78.2778 88.6667 78.3333z"/>
<path style="fill:#21687f; stroke:none;" d="M114 78C115.458 79.0811 116.248 79.4361 118 80C116.457 78.7333 115.952 78.5108 114 78z"/>
<path style="fill:#07181d; stroke:none;" d="M117 78C118.223 79.1951 118.42 79.3164 120 80C118.777 78.8048 118.58 78.6836 117 78z"/>
<path style="fill:#21667c; stroke:none;" d="M83 80L83 82C84.6352 81.455 84.4549 81.6352 85 80L83 80z"/>
<path style="fill:#1d5d71; stroke:none;" d="M118.667 80.3333C118.222 80.7778 119.278 80.7222 119.333 80.6667C119.778 80.2223 118.722 80.2777 118.667 80.3333z"/>
<path style="fill:#091124; stroke:none;" d="M129.333 80.6667C129.278 80.7222 129.222 81.7778 129.667 81.3333C129.722 81.2778 129.778 80.2222 129.333 80.6667z"/>
<path style="fill:#114064; stroke:none;" d="M73 81L74 82L73 81z"/>
<path style="fill:#143e4c; stroke:none;" d="M82 81L83 82L82 81z"/>
<path style="fill:#21687e; stroke:none;" d="M120 81L121 82L120 81z"/>
<path style="fill:#1b5d94; stroke:none;" d="M169 81C170.248 81.6848 170.548 81.7488 172 82C170.752 81.3152 170.452 81.2512 169 81z"/>
<path style="fill:#081c2d; stroke:none;" d="M170 82C171.809 82.5743 172.069 82.4653 174 82C172.341 81.5935 171.758 81.6914 170 82z"/>
<path style="fill:#0a1427; stroke:none;" d="M31 82C32.2483 82.6848 32.5485 82.7488 34 83C32.7516 82.3152 32.4516 82.2512 31 82z"/>
<path style="fill:#1b3e74; stroke:none;" d="M34 82C36.2061 83.8169 38.1979 84.3938 41 85C38.7939 83.1831 36.8021 82.6062 34 82z"/>
<path style="fill:#071b2b; stroke:none;" d="M72 82L72 84C73.6351 83.455 73.455 83.6351 74 82L72 82z"/>
<path style="fill:#1e5d72; stroke:none;" d="M81 82L82 83L81 82z"/>
<path style="fill:#194d5f; stroke:none;" d="M122 82L123 83L122 82z"/>
<path style="fill:#0d1933; stroke:none;" d="M131.333 82.6667C131.278 82.7222 131.222 83.7778 131.667 83.3333C131.722 83.2778 131.778 82.2222 131.333 82.6667z"/>
<path style="fill:#0f3351; stroke:none;" d="M167 84C168.58 83.3164 168.777 83.1952 170 82C168.42 82.6836 168.223 82.8048 167 84z"/>
<path style="fill:#164e7c; stroke:none;" d="M71 83L72 84L71 83z"/>
<path style="fill:#194e60; stroke:none;" d="M80 83L81 84L80 83z"/>
<path style="fill:#2a829f; stroke:none;" d="M122 83L123 84L122 83z"/>
<path style="fill:#091f25; stroke:none;" d="M123.667 83.3333C123.222 83.7778 124.278 83.7222 124.333 83.6667C124.778 83.2222 123.722 83.2778 123.667 83.3333z"/>
<path style="fill:#1c5d98; stroke:none;" d="M163 85L167 84C164.954 83.2489 164.404 83.3444 163 85z"/>
<path style="fill:#091427; stroke:none;" d="M36 84C37.2483 84.6848 37.5484 84.7488 39 85C37.7517 84.3152 37.4516 84.2512 36 84z"/>
<path style="fill:#0c2b44; stroke:none;" d="M70 84L70 86C71.6352 85.4549 71.4549 85.6352 72 84L70 84z"/>
<path style="fill:#1e6076; stroke:none;" d="M79 84L80 85L79 84z"/>
<path style="fill:#1a5264; stroke:none;" d="M124 84L125 85L124 84z"/>
<path style="fill:#12264a; stroke:none;" d="M133.333 84.6667C133.278 84.7223 133.222 85.7777 133.667 85.3333C133.722 85.2778 133.778 84.2222 133.333 84.6667z"/>
<path style="fill:#071625; stroke:none;" d="M163 85C164.846 85.4675 166.069 85.3013 168 85C165.956 84.2256 165.155 84.4078 163 85z"/>
<path style="fill:#0f2241; stroke:none;" d="M39.6667 85.3333C39.2222 85.7778 40.2778 85.7222 40.3333 85.6667C40.7777 85.2223 39.7222 85.2778 39.6667 85.3333z"/>
<path style="fill:#1f4d8c; stroke:none;" d="M41 85C42.6932 86.0624 44.0404 86.5196 46 87C44.2115 85.5785 43.2942 85.3026 41 85z"/>
<path style="fill:#144770; stroke:none;" d="M69.3333 85.6667C69.2778 85.7222 69.2222 86.7778 69.6667 86.3333C69.7222 86.2778 69.7778 85.2222 69.3333 85.6667z"/>
<path style="fill:#1c5b6f; stroke:none;" d="M78 85L79 86L78 85z"/>
<path style="fill:#2b87a4; stroke:none;" d="M124 85L125 86L124 85z"/>
<path style="fill:#195061; stroke:none;" d="M125 85L126 86L125 85z"/>
<path style="fill:#12385c; stroke:none;" d="M161.667 85.3333C161.222 85.7777 162.278 85.7223 162.333 85.6667C162.778 85.2222 161.722 85.2778 161.667 85.3333z"/>
<path style="fill:#0b1c34; stroke:none;" d="M42.6667 86.3333C42.2222 86.7778 43.2778 86.7222 43.3333 86.6667C43.7778 86.2222 42.7222 86.2778 42.6667 86.3333z"/>
<path style="fill:#1c5669; stroke:none;" d="M77 86L78 87L77 86z"/>
<path style="fill:#154553; stroke:none;" d="M126 86L127 87L126 86z"/>
<path style="fill:#174473; stroke:none;" d="M157.667 86.3333C157.222 86.7777 158.278 86.7223 158.333 86.6667C158.778 86.2222 157.722 86.2778 157.667 86.3333z"/>
<path style="fill:#102f50; stroke:none;" d="M156 87C158.044 87.7744 158.845 87.5922 161 87C159.154 86.5325 157.931 86.6987 156 87z"/>
<path style="fill:#0d213c; stroke:none;" d="M44.6667 87.3333C44.2222 87.7778 45.2778 87.7222 45.3333 87.6667C45.7777 87.2223 44.7222 87.2778 44.6667 87.3333z"/>
<path style="fill:#153863; stroke:none;" d="M46 87C47.2484 87.6848 47.5484 87.7488 49 88C47.7517 87.3152 47.4516 87.2512 46 87z"/>
<path style="fill:#0c2b46; stroke:none;" d="M68 87L68 89C69.6352 88.4549 69.4549 88.6352 70 87L68 87z"/>
<path style="fill:#1a5062; stroke:none;" d="M76 87L77 88L76 87z"/>
<path style="fill:#2c8aa8; stroke:none;" d="M77 87L78 88L77 87z"/>
<path style="fill:#287d98; stroke:none;" d="M126 87L127 88L126 87z"/>
<path style="fill:#164554; stroke:none;" d="M127 87L128 88L127 87z"/>
<path style="fill:#194577; stroke:none;" d="M154.667 87.3333C154.222 87.7777 155.278 87.7222 155.333 87.6667C155.778 87.2222 154.722 87.2778 154.667 87.3333z"/>
<path style="fill:#1a4578; stroke:none;" d="M49.6667 88.3333C49.2222 88.7778 50.2778 88.7222 50.3333 88.6667C50.7778 88.2222 49.7222 88.2778 49.6667 88.3333z"/>
<path style="fill:#14436d; stroke:none;" d="M67 88L66 92C67.303 90.3324 67.553 90.0078 67 88z"/>
<path style="fill:#216980; stroke:none;" d="M75.3333 88.6667C75.2778 88.7222 75.2222 89.7778 75.6667 89.3333C75.7222 89.2778 75.7778 88.2222 75.3333 88.6667z"/>
<path style="fill:#35a7cb; stroke:none;" d="M127.333 88.6667C127.278 88.7222 127.222 89.7778 127.667 89.3333C127.722 89.2778 127.778 88.2222 127.333 88.6667z"/>
<path style="fill:#1c586b; stroke:none;" d="M128.333 88.6667C128.278 88.7223 128.222 89.7778 128.667 89.3333C128.722 89.2778 128.778 88.2222 128.333 88.6667z"/>
<path style="fill:#0d1c37; stroke:none;" d="M135 88L136 92C136.393 90.076 136.146 89.6404 135 88z"/>
<path style="fill:#184375; stroke:none;" d="M152.667 88.3333C152.222 88.7777 153.278 88.7222 153.333 88.6667C153.778 88.2222 152.722 88.2778 152.667 88.3333z"/>
<path style="fill:#0c2139; stroke:none;" d="M152 89C153.809 89.5743 154.069 89.4653 156 89C154.341 88.5935 153.758 88.6914 152 89z"/>
<path style="fill:#0d233d; stroke:none;" d="M50 89L52 93C52.683 91.4939 52.8259 90.6853 53 89L50 89z"/>
<path style="fill:#1a4a80; stroke:none;" d="M53 89L53 93C53.7102 91.2405 53.7102 90.7595 53 89z"/>
<path style="fill:#183f6f; stroke:none;" d="M150 89L150 93C150.911 91.6234 151.404 90.5601 152 89L150 89z"/>
<path style="fill:#123743; stroke:none;" d="M73 90L73 93C74.0154 91.8607 74.3087 91.3884 75 90L73 90z"/>
<path style="fill:#277a94; stroke:none;" d="M129.333 90.6667C129.278 90.7223 129.222 91.7777 129.667 91.3333C129.722 91.2778 129.778 90.2222 129.333 90.6667z"/>
<path style="fill:#0a1c31; stroke:none;" d="M151 90C152.041 93.6779 153.564 95.347 157 97C155.21 94.3948 153.312 92.1571 151 90z"/>
<path style="fill:#164554; stroke:none;" d="M130.333 91.6667C130.278 91.7222 130.222 92.7778 130.667 92.3333C130.722 92.2778 130.778 91.2222 130.333 91.6667z"/>
<path style="fill:#17305c; stroke:none;" d="M137.333 91.6667C137.278 91.7223 137.222 92.7778 137.667 92.3333C137.722 92.2778 137.778 91.2222 137.333 91.6667z"/>
<path style="fill:#0a253b; stroke:none;" d="M66.3333 92.6667C66.2778 92.7222 66.2222 93.7778 66.6667 93.3333C66.7222 93.2778 66.7778 92.2222 66.3333 92.6667z"/>
<path style="fill:#164774; stroke:none;" d="M64 93L63 102C65.0414 99.3202 65.2123 96.2607 66 93L64 93z"/>
<path style="fill:#0a1e24; stroke:none;" d="M71 93L71 97C71.7102 95.2405 71.7102 94.7595 71 93z"/>
<path style="fill:#226b82; stroke:none;" d="M72 93L72 95C73.6352 94.4549 73.4549 94.6352 74 93L72 93z"/>
<path style="fill:#3097b7; stroke:none;" d="M130.333 93.6667C130.278 93.7222 130.222 94.7778 130.667 94.3333C130.722 94.2778 130.778 93.2222 130.333 93.6667z"/>
<path style="fill:#1d5a6e; stroke:none;" d="M131.333 93.6667C131.278 93.7222 131.222 94.7778 131.667 94.3333C131.722 94.2778 131.778 93.2222 131.333 93.6667z"/>
<path style="fill:#070f1d; stroke:none;" d="M137 93L138 102C139.355 98.7394 138.979 95.897 137 93z"/>
<path style="fill:#1a3b71; stroke:none;" d="M138 93C138.997 98.3488 138.728 102.511 145 103C143.494 102.317 142.685 102.174 141 102C140.559 98.5988 140.132 95.7087 138 93z"/>
<path style="fill:#163a66; stroke:none;" d="M47 97C48.9486 96.0643 49.5502 95.6076 51 94C49.0514 94.9357 48.4498 95.3924 47 97z"/>
<path style="fill:#0c2942; stroke:none;" d="M65.3333 94.6667C65.2778 94.7222 65.2222 95.7778 65.6667 95.3333C65.7222 95.2778 65.7778 94.2222 65.3333 94.6667z"/>
<path style="fill:#2f96b6; stroke:none;" d="M88 94C89.7691 94.7789 91.0359 94.9124 93 95C91.231 94.2211 89.964 94.0876 88 94z"/>
<path style="fill:#2f94b5; stroke:none;" d="M109 97C111.042 96.1055 112.828 95.4637 115 95C112.12 93.902 110.65 94.4455 109 97z"/>
<path style="fill:#329ec0; stroke:none;" d="M72.3333 95.6667C72.2778 95.7222 72.2223 96.7778 72.6667 96.3333C72.7222 96.2778 72.7778 95.2222 72.3333 95.6667z"/>
<path style="fill:#237088; stroke:none;" d="M88.3333 95.6667C88.2778 95.7222 88.2223 96.7778 88.6667 96.3333C88.7222 96.2778 88.7778 95.2222 88.3333 95.6667z"/>
<path style="fill:#0c252d; stroke:none;" d="M89 95C89.1759 96.8781 89.4382 98.1994 90 100C90.4065 98.3407 90.3086 97.7582 90 96L94 98C92.5537 95.7173 91.6895 95.4176 89 95z"/>
<path style="fill:#36aacf; stroke:none;" d="M93 95C93.5451 96.6352 93.3648 96.4549 95 97L95 95L93 95z"/>
<path style="fill:#10333e; stroke:none;" d="M108 102C109.879 100.131 111.693 96.681 114 99C114.683 97.494 114.826 96.6852 115 95C110.552 95.7073 109.123 97.7478 108 102z"/>
<path style="fill:#2a85a3; stroke:none;" d="M115.333 95.6667C115.278 95.7222 115.222 96.7778 115.667 96.3333C115.722 96.2778 115.778 95.2222 115.333 95.6667z"/>
<path style="fill:#2c89a7; stroke:none;" d="M131.333 95.6667C131.278 95.7222 131.222 96.7778 131.667 96.3333C131.722 96.2778 131.778 95.2222 131.333 95.6667z"/>
<path style="fill:#000000; stroke:none;" d="M90 96C91.7127 105.053 96.2214 113.192 99 122L105 122C106.869 113.045 111.894 104.932 114 96C108.796 98.7749 107.53 104.81 105.4 109.999C104.758 111.562 103.586 115.864 101.174 115.37C99.1333 114.951 98.5652 111.179 97.9892 109.576C96.1441 104.438 95.0858 98.7286 90 96z"/>
<path style="fill:#214e8e; stroke:none;" d="M43 103L63 103C57.5308 100.705 49.9013 102 44 102L48 97C44.988 98.5047 43.9254 99.7596 43 103z"/>
<path style="fill:#0a1e25; stroke:none;" d="M69 97L69 101C69.9114 99.6235 70.4038 98.5601 71 97L69 97z"/>
<path style="fill:#277c96; stroke:none;" d="M71.3333 97.6667C71.2778 97.7222 71.2223 98.7778 71.6667 98.3333C71.7222 98.2778 71.7778 97.2222 71.3333 97.6667z"/>
<path style="fill:#329cbe; stroke:none;" d="M88.3333 97.6667C88.2778 97.7222 88.2223 98.7778 88.6667 98.3333C88.7222 98.2778 88.7778 97.2222 88.3333 97.6667z"/>
<path style="fill:#1e6075; stroke:none;" d="M94.3333 97.6667C94.2778 97.7222 94.2222 98.7778 94.6667 98.3333C94.7222 98.2778 94.7778 97.2222 94.3333 97.6667z"/>
<path style="fill:#236e85; stroke:none;" d="M132.333 97.6667C132.278 97.7223 132.222 98.7778 132.667 98.3333C132.722 98.2778 132.778 97.2222 132.333 97.6667z"/>
<path style="fill:#1a4d83; stroke:none;" d="M157.333 97.6667C157.278 97.7223 157.222 98.7777 157.667 98.3333C157.722 98.2778 157.778 97.2222 157.333 97.6667z"/>
<path style="fill:#1f6276; stroke:none;" d="M70.3333 98.6667C70.2778 98.7222 70.2222 99.7778 70.6667 99.3333C70.7222 99.2778 70.7778 98.2222 70.3333 98.6667z"/>
<path style="fill:#195162; stroke:none;" d="M133.333 98.6667C133.278 98.7223 133.222 99.7777 133.667 99.3333C133.722 99.2778 133.778 98.2222 133.333 98.6667z"/>
<path style="fill:#2f94b5; stroke:none;" d="M89.3333 99.6667C89.2778 99.7222 89.2222 100.778 89.6667 100.333C89.7222 100.278 89.7778 99.2222 89.3333 99.6667z"/>
<path style="fill:#10313d; stroke:none;" d="M94.3333 99.6667C94.2778 99.7222 94.2222 100.778 94.6667 100.333C94.7222 100.278 94.7778 99.2222 94.3333 99.6667z"/>
<path style="fill:#226b82; stroke:none;" d="M95.3333 99.6667C95.2778 99.7222 95.2223 100.778 95.6667 100.333C95.7222 100.278 95.7778 99.2222 95.3333 99.6667z"/>
<path style="fill:#3097b8; stroke:none;" d="M107 99L107 102C108.015 100.861 108.309 100.388 109 99L107 99z"/>
<path style="fill:#08191f; stroke:none;" d="M112 99L112 103C112.71 101.241 112.71 100.759 112 99z"/>
<path style="fill:#21687e; stroke:none;" d="M113 99L113 101C114.635 100.455 114.455 100.635 115 99L113 99z"/>
<path style="fill:#0d2830; stroke:none;" d="M134 99L134 114C135.74 109.852 135.74 103.148 134 99z"/>
<path style="fill:#2f95b5; stroke:none;" d="M70 100L70 113C71.5909 109.209 71.5909 103.791 70 100z"/>
<path style="fill:#216980; stroke:none;" d="M90.3333 100.667C90.2778 100.722 90.2222 101.778 90.6667 101.333C90.7222 101.278 90.7778 100.222 90.3333 100.667z"/>
<path style="fill:#3096b6; stroke:none;" d="M96 100L96 103C96.6961 101.446 96.6961 101.554 96 100z"/>
<path style="fill:#29819c; stroke:none;" d="M133 100L133 113C134.591 109.209 134.591 103.791 133 100z"/>
<path style="fill:#0c253e; stroke:none;" d="M160 100L161 103C161.685 101.752 161.749 101.452 162 100L160 100z"/>
<path style="fill:#112747; stroke:none;" d="M42.3333 101.667C42.2778 101.722 42.2222 102.778 42.6667 102.333C42.7222 102.278 42.7778 101.222 42.3333 101.667z"/>
<path style="fill:#113642; stroke:none;" d="M69 101L69 113C70.5124 109.396 70.5124 104.604 69 101z"/>
<path style="fill:#10323c; stroke:none;" d="M95.3333 101.667C95.2778 101.722 95.2222 102.778 95.6667 102.333C95.7222 102.278 95.7778 101.222 95.3333 101.667z"/>
<path style="fill:#2e91b0; stroke:none;" d="M113 101L113 104C113.696 102.446 113.696 102.554 113 101z"/>
<path style="fill:#164270; stroke:none;" d="M160.333 101.667C160.278 101.722 160.222 102.778 160.667 102.333C160.722 102.278 160.778 101.222 160.333 101.667z"/>
<path style="fill:#2c8caa; stroke:none;" d="M90.3333 102.667C90.2778 102.722 90.2222 103.778 90.6667 103.333C90.7222 103.278 90.7778 102.222 90.3333 102.667z"/>
<path style="fill:#1d5d71; stroke:none;" d="M107.333 102.667C107.278 102.722 107.222 103.778 107.667 103.333C107.722 103.278 107.778 102.222 107.333 102.667z"/>
<path style="fill:#1d4c86; stroke:none;" d="M145 102C147.613 103.098 150.165 102.993 153 103C150.387 101.902 147.835 102.007 145 102z"/>
<path style="fill:#13345b; stroke:none;" d="M44 103C46.8897 104.213 49.8741 103.998 53 104C50.1103 102.787 47.1259 103.002 44 103z"/>
<path style="fill:#091f34; stroke:none;" d="M53 103C55.8897 104.213 58.8741 103.998 62 104C59.1103 102.787 56.1259 103.002 53 103z"/>
<path style="fill:#1a5264; stroke:none;" d="M96.3333 103.667C96.2778 103.722 96.2222 104.778 96.6667 104.333C96.7222 104.278 96.7778 103.222 96.3333 103.667z"/>
<path style="fill:#164756; stroke:none;" d="M112 103L113 104L112 103z"/>
<path style="fill:#071321; stroke:none;" d="M141 103L141 105L154 105C150.062 103.301 145.281 103.088 141 103z"/>
<path style="fill:#122f53; stroke:none;" d="M147 103C150.938 104.699 155.719 104.912 160 105C155.933 103.046 151.456 103.012 147 103z"/>
<path style="fill:#1a4b7f; stroke:none;" d="M155 103C156.769 103.779 158.036 103.912 160 104C158.231 103.221 156.964 103.088 155 103z"/>
<path style="fill:#081728; stroke:none;" d="M44 104C46.8897 105.213 49.8741 104.998 53 105C50.1103 103.787 47.1259 104.002 44 104z"/>
<path style="fill:#39b3d9; stroke:none;" d="M90 104C90.6836 105.58 90.8048 105.777 92 107C91.3164 105.42 91.1952 105.223 90 104z"/>
<path style="fill:#20687e; stroke:none;" d="M91 104L92 105L91 104z"/>
<path style="fill:#3199ba; stroke:none;" d="M105 104L105 106C106.635 105.455 106.455 105.635 107 104L105 104z"/>
<path style="fill:#103541; stroke:none;" d="M107 104C106.014 105.479 106 105.203 106 107C107.289 105.557 107.401 105.766 107 104z"/>
<path style="fill:#21677e; stroke:none;" d="M111 104L111 106C112.635 105.455 112.455 105.635 113 104L111 104z"/>
<path style="fill:#21687e; stroke:none;" d="M92.3333 105.667C92.2778 105.722 92.2222 106.778 92.6667 106.333C92.7222 106.278 92.7778 105.222 92.3333 105.667z"/>
<path style="fill:#164554; stroke:none;" d="M97.3333 105.667C97.2778 105.722 97.2222 106.778 97.6667 106.333C97.7222 106.278 97.7778 105.222 97.3333 105.667z"/>
<path style="fill:#319abb; stroke:none;" d="M98.3333 105.667C98.2778 105.722 98.2222 106.778 98.6667 106.333C98.7222 106.278 98.7778 105.222 98.3333 105.667z"/>
<path style="fill:#0c2932; stroke:none;" d="M93 106L94 111C94.6514 108.766 94.3182 107.926 93 106z"/>
<path style="fill:#25758f; stroke:none;" d="M105 106L105 109C105.696 107.446 105.696 107.554 105 106z"/>
<path style="fill:#2d8fae; stroke:none;" d="M111 106L111 109C111.696 107.446 111.696 107.554 111 106z"/>
<path style="fill:#2b8aa7; stroke:none;" d="M92 107L93 111C93.393 109.076 93.1456 108.64 92 107z"/>
<path style="fill:#0b2129; stroke:none;" d="M97 107L97 110C97.6961 108.446 97.6961 108.554 97 107z"/>
<path style="fill:#287c97; stroke:none;" d="M98 107L99 111C99.393 109.076 99.1456 108.64 98 107z"/>
<path style="fill:#1a5162; stroke:none;" d="M110 107L110 110C110.696 108.446 110.696 108.554 110 107z"/>
<path style="fill:#123744; stroke:none;" d="M109.333 108.667C109.278 108.722 109.222 109.778 109.667 109.333C109.722 109.278 109.778 108.222 109.333 108.667z"/>
<path style="fill:#2d8ead; stroke:none;" d="M104 109L105 110L104 109z"/>
<path style="fill:#113540; stroke:none;" d="M105 109C104.014 110.479 104 110.203 104 112C105.289 110.557 105.401 110.766 105 109z"/>
<path style="fill:#39b4db; stroke:none;" d="M111 109C110.014 110.479 110 110.203 110 112C111.289 110.557 111.401 110.766 111 109z"/>
<path style="fill:#2d8fae; stroke:none;" d="M103 110L103 113C103.696 111.446 103.696 111.554 103 110z"/>
<path style="fill:#236f87; stroke:none;" d="M109.333 110.667C109.278 110.722 109.222 111.778 109.667 111.333C109.722 111.278 109.778 110.222 109.333 110.667z"/>
<path style="fill:#071423; stroke:none;" d="M156 110C157.506 110.683 158.315 110.826 160 111C158.494 110.317 157.685 110.174 156 110z"/>
<path style="fill:#132d52; stroke:none;" d="M42 114C44.394 112.661 46.2623 112.179 49 112C46.1205 110.341 42.7718 110.398 42 114z"/>
<path style="fill:#0a1f35; stroke:none;" d="M49 111C53.2165 112.769 58.4589 112 63 112C58.7835 110.231 53.5411 111 49 111z"/>
<path style="fill:#247189; stroke:none;" d="M94.3333 111.667C94.2778 111.722 94.2222 112.778 94.6667 112.333C94.7222 112.278 94.7778 111.222 94.3333 111.667z"/>
<path style="fill:#081a20; stroke:none;" d="M99 111L99 116C99.8299 113.969 99.8299 113.03 99 111z"/>
<path style="fill:#0c1d34; stroke:none;" d="M141 111C144.697 112.552 149.017 112 153 112C149.303 110.448 144.983 111 141 111z"/>
<path style="fill:#113053; stroke:none;" d="M153 111C155.332 111.985 157.457 111.981 160 112C157.668 111.015 155.543 111.019 153 111z"/>
<path style="fill:#1c5b96; stroke:none;" d="M43 112C43.6735 114.297 43.9653 114.774 46 116L45 113C51.109 113 58.29 111.553 63 116C63.683 114.494 63.8259 113.685 64 112L43 112z"/>
<path style="fill:#103455; stroke:none;" d="M64 112C64.0262 115.122 64.2757 117.96 65 121C65.9277 117.983 65.2868 114.867 64 112z"/>
<path style="fill:#174a5a; stroke:none;" d="M95.3333 112.667C95.2778 112.722 95.2223 113.778 95.6667 113.333C95.7222 113.278 95.7778 112.222 95.3333 112.667z"/>
<path style="fill:#1d596c; stroke:none;" d="M108.333 112.667C108.278 112.722 108.222 113.778 108.667 113.333C108.722 113.278 108.778 112.222 108.333 112.667z"/>
<path style="fill:#3199ba; stroke:none;" d="M109.333 112.667C109.278 112.722 109.222 113.778 109.667 113.333C109.722 113.278 109.778 112.222 109.333 112.667z"/>
<path style="fill:#245097; stroke:none;" d="M140 112L140 116C145.69 112.156 153.9 111.607 160 115C160.986 113.521 161 113.797 161 112L140 112z"/>
<path style="fill:#081a2c; stroke:none;" d="M161 112L160 116C161.303 114.332 161.553 114.008 161 112z"/>
<path style="fill:#2370b7; stroke:none;" d="M45 113C48.9587 114.661 53.7366 114 58 114C56.3931 119.436 57 125.36 57 131L57 160C57 163.872 55.4558 172.077 58.0278 175.258C60.178 177.917 66.8315 177.6 70 178C67.9584 176.584 66.489 176.255 64 176C65.7772 169.988 65 163.239 65 157C65 145.633 65.4257 134.281 64 123L65 125C65.7206 122.945 65.4166 121.806 64.652 119.711C61.3826 110.749 53.1158 113 45 113z"/>
<path style="fill:#091e24; stroke:none;" d="M69 113C69.3431 115.806 70.1552 118.305 71 121C72.0226 117.891 70.8532 115.606 69 113z"/>
<path style="fill:#277994; stroke:none;" d="M70 113L71 117C71.393 115.076 71.1456 114.64 70 113z"/>
<path style="fill:#2b87a3; stroke:none;" d="M94 113C94.6836 114.58 94.8048 114.777 96 116C95.3164 114.42 95.1952 114.223 94 113z"/>
<path style="fill:#0c2730; stroke:none;" d="M96 113L96 116C96.6961 114.446 96.6961 114.554 96 113z"/>
<path style="fill:#1c596c; stroke:none;" d="M100 113C100.741 116.457 103.259 116.457 104 113C102.258 113.584 101.742 113.584 100 113z"/>
<path style="fill:#34a2c6; stroke:none;" d="M101.667 113.333C101.222 113.778 102.278 113.722 102.333 113.667C102.778 113.222 101.722 113.278 101.667 113.333z"/>
<path style="fill:#113743; stroke:none;" d="M107 113L107 116C107.696 114.446 107.696 114.554 107 113z"/>
<path style="fill:#34a6ca; stroke:none;" d="M132 113L132 116C132.696 114.446 132.696 114.554 132 113z"/>
<path style="fill:#1f6176; stroke:none;" d="M133 113L133 116C133.696 114.446 133.696 114.554 133 113z"/>
<path style="fill:#19376a; stroke:none;" d="M139 113C138.883 115.73 138.501 118.314 138 121C139.993 118.369 140.275 116.07 139 113z"/>
<path style="fill:#2854a4; stroke:none;" d="M142 113C139.068 119.477 136.085 125.745 132.731 132.004C131.483 134.332 129.435 136.399 128.769 139C127.447 144.154 129.009 151.599 129 157C128.988 164.656 127.029 171.313 128 179C134.054 178.522 139.904 178 146 178C144.161 170.276 145 161.9 145 154L145 113L142 113z"/>
<path style="fill:#2661ad; stroke:none;" d="M145 113C145 134.823 146.497 157.248 145 179C149.6 179.363 153.707 180.352 158 182L158 149C158 142.761 158.777 136.012 157 130L162 131C159.658 128.264 151.237 127.599 151.206 123.029C151.187 120.138 157.804 116.416 159 113L145 113z"/>
<path style="fill:#050b13; stroke:none;" d="M42 114C43.3819 116.42 44.3626 117.061 47 118C45.4104 116.248 44.0463 115.206 42 114z"/>
<path style="fill:#2467b1; stroke:none;" d="M45 114C47.7611 118.99 57.6486 123.611 49 128C51.4616 132.426 51 137.06 51 142L51 164C51 168.94 51.4616 173.574 49 178C52.3875 178.734 55.5433 178.147 59 178C55.9646 170.078 57 161.384 57 153C57 140.494 55.0961 126.197 58 114L45 114z"/>
<path style="fill:#287f9a; stroke:none;" d="M101.667 114.333C101.222 114.778 102.278 114.722 102.333 114.667C102.778 114.222 101.722 114.278 101.667 114.333z"/>
<path style="fill:#2f95b5; stroke:none;" d="M108.333 114.667C108.278 114.722 108.222 115.778 108.667 115.333C108.722 115.278 108.778 114.222 108.333 114.667z"/>
<path style="fill:#13365c; stroke:none;" d="M158 115L158 117C159.635 116.455 159.455 116.635 160 115L158 115z"/>
<path style="fill:#1f6479; stroke:none;" d="M96.3333 116.667C96.2778 116.722 96.2222 117.778 96.6667 117.333C96.7222 117.278 96.7778 116.222 96.3333 116.667z"/>
<path style="fill:#0f2e39; stroke:none;" d="M100 116C101.248 116.685 101.548 116.749 103 117C101.752 116.315 101.452 116.251 100 116z"/>
<path style="fill:#277993; stroke:none;" d="M107.333 116.667C107.278 116.722 107.222 117.778 107.667 117.333C107.722 117.278 107.778 116.222 107.333 116.667z"/>
<path style="fill:#319bbc; stroke:none;" d="M131 116L131 119C131.696 117.446 131.696 117.554 131 116z"/>
<path style="fill:#164352; stroke:none;" d="M132 116L132 118C133.635 117.455 133.455 117.635 134 116L132 116z"/>
<path style="fill:#1d596c; stroke:none;" d="M106.333 117.667C106.278 117.722 106.222 118.778 106.667 118.333C106.722 118.278 106.778 117.222 106.333 117.667z"/>
<path style="fill:#0e2a47; stroke:none;" d="M156 117L156 119C157.635 118.455 157.455 118.635 158 117L156 117z"/>
<path style="fill:#33a0c4; stroke:none;" d="M96.3333 118.667C96.2778 118.722 96.2222 119.778 96.6667 119.333C96.7222 119.278 96.7778 118.222 96.3333 118.667z"/>
<path style="fill:#236f88; stroke:none;" d="M97.3333 118.667C97.2778 118.722 97.2222 119.778 97.6667 119.333C97.7222 119.278 97.7778 118.222 97.3333 118.667z"/>
<path style="fill:#113541; stroke:none;" d="M105.333 118.667C105.278 118.722 105.222 119.778 105.667 119.333C105.722 119.278 105.778 118.222 105.333 118.667z"/>
<path style="fill:#329ec0; stroke:none;" d="M107 118C106.014 119.479 106 119.203 106 121C107.289 119.557 107.401 119.766 107 118z"/>
<path style="fill:#1c4e87; stroke:none;" d="M49 119C50.2228 120.195 50.42 120.316 52 121C50.7772 119.805 50.58 119.684 49 119z"/>
<path style="fill:#1b5a93; stroke:none;" d="M64.3333 119.667C64.2778 119.722 64.2222 120.778 64.6667 120.333C64.7222 120.278 64.7778 119.222 64.3333 119.667z"/>
<path style="fill:#226a81; stroke:none;" d="M72.3333 119.667C72.2778 119.722 72.2222 120.778 72.6667 120.333C72.7222 120.278 72.7778 119.222 72.3333 119.667z"/>
<path style="fill:#11343f; stroke:none;" d="M98 119C98.3067 121.123 98.3821 121.686 100 123C99.4038 121.44 98.9114 120.377 98 119z"/>
<path style="fill:#164554; stroke:none;" d="M131 119L130 123C131.303 121.332 131.553 121.008 131 119z"/>
<path style="fill:#0b2138; stroke:none;" d="M154 119L154 121C155.635 120.455 155.455 120.635 156 119L154 119z"/>
<path style="fill:#329ec0; stroke:none;" d="M97.3333 120.667C97.2778 120.722 97.2222 121.778 97.6667 121.333C97.7222 121.278 97.7778 120.222 97.3333 120.667z"/>
<path style="fill:#1c576a; stroke:none;" d="M105 120L105 123C105.696 121.446 105.696 121.554 105 120z"/>
<path style="fill:#37aed4; stroke:none;" d="M129 120L129 123C130.015 121.861 130.309 121.388 131 120L129 120z"/>
<path style="fill:#112446; stroke:none;" d="M137.333 120.667C137.278 120.722 137.222 121.778 137.667 121.333C137.722 121.278 137.778 120.222 137.333 120.667z"/>
<path style="fill:#194173; stroke:none;" d="M150 125L154 121C151.025 120.552 150.464 122.276 150 125z"/>
<path style="fill:#071422; stroke:none;" d="M51 121C51.3067 123.123 51.3821 123.686 53 125C52.4892 123.048 52.2667 122.543 51 121z"/>
<path style="fill:#0f3455; stroke:none;" d="M66 121L67 125C67.393 123.076 67.1456 122.64 66 121z"/>
<path style="fill:#091f25; stroke:none;" d="M72.3333 121.667C72.2778 121.722 72.2222 122.778 72.6667 122.333C72.7222 122.278 72.7778 121.222 72.3333 121.667z"/>
<path style="fill:#1b586a; stroke:none;" d="M73.3333 121.667C73.2778 121.722 73.2222 122.778 73.6667 122.333C73.7222 122.278 73.7778 121.222 73.3333 121.667z"/>
<path style="fill:#275ca9; stroke:none;" d="M53 122C49.3549 129.313 40.4669 128.631 35 134C37.874 139.168 37 145.252 37 151L37 184C42.644 183.307 47.2334 180.168 53 180C51.6234 179.089 50.5601 178.596 49 178C51.6998 174.146 51 169.568 51 165L51 141C51 137.11 52.1119 131.719 49 129C51.9524 127.161 54.15 125.616 53 122z"/>
<path style="fill:#07161b; stroke:none;" d="M100 122C101.769 122.779 103.036 122.912 105 123C103.231 122.221 101.964 122.088 100 122z"/>
<path style="fill:#1d3d76; stroke:none;" d="M137 122L136 126C137.303 124.332 137.553 124.008 137 122z"/>
<path style="fill:#0a192c; stroke:none;" d="M151 122C152.178 125.882 154.048 126.699 158 127C155.691 125.513 153.868 124.659 153 122L151 122z"/>
<path style="fill:#2276bc; stroke:none;" d="M64 123C64.8706 134.031 65 144.91 65 156C65 162.659 65.5506 169.487 64 176C67.8552 176.748 71.0285 178.725 75 179C75.5107 177.048 75.7333 176.543 77 175C74.9101 171.05 75.945 167.324 75.9961 163C76.0908 155.002 76 146.998 76 139L79 140C75.5139 134.057 69.1931 127.635 64 123z"/>
<path style="fill:#081b20; stroke:none;" d="M73.3333 123.667C73.2778 123.722 73.2222 124.778 73.6667 124.333C73.7222 124.278 73.7778 123.222 73.3333 123.667z"/>
<path style="fill:#1e5d72; stroke:none;" d="M98 123C100.332 123.985 102.457 123.981 105 124C102.668 123.015 100.543 123.019 98 123z"/>
<path style="fill:#184e5f; stroke:none;" d="M129.333 123.667C129.278 123.722 129.222 124.778 129.667 124.333C129.722 124.278 129.778 123.222 129.333 123.667z"/>
<path style="fill:#091325; stroke:none;" d="M135 123L135 126C136.015 124.861 136.309 124.388 137 123L135 123z"/>
<path style="fill:#1b5e97; stroke:none;" d="M66 124C66.6836 125.58 66.8048 125.777 68 127C67.3164 125.42 67.1952 125.223 66 124z"/>
<path style="fill:#081d2f; stroke:none;" d="M68 124L68 127C68.6961 125.446 68.6961 125.554 68 124z"/>
<path style="fill:#1e5d71; stroke:none;" d="M74 124L75 125L74 124z"/>
<path style="fill:#3096b7; stroke:none;" d="M98 124C100.052 124.874 101.747 124.953 104 125C101.948 124.126 100.253 124.047 98 124z"/>
<path style="fill:#37abd0; stroke:none;" d="M127 124L127 127C128.015 125.861 128.309 125.388 129 124L127 124z"/>
<path style="fill:#163a66; stroke:none;" d="M49 127C50.58 126.316 50.7772 126.195 52 125C50.42 125.684 50.2228 125.805 49 127z"/>
<path style="fill:#143e4c; stroke:none;" d="M75.3333 125.667C75.2778 125.722 75.2222 126.778 75.6667 126.333C75.7222 126.278 75.7778 125.222 75.3333 125.667z"/>
<path style="fill:#0a1e25; stroke:none;" d="M128 125L126 130C127.914 128.394 128.837 127.217 130 125L128 125z"/>
<path style="fill:#06101d; stroke:none;" d="M45 128L49 127C46.9535 126.249 46.4043 126.344 45 128z"/>
<path style="fill:#132f55; stroke:none;" d="M43 128C45.0443 128.774 45.8446 128.592 48 128C46.1535 127.532 44.9315 127.699 43 128z"/>
<path style="fill:#14456e; stroke:none;" d="M69.3333 127.667C69.2778 127.722 69.2222 128.778 69.6667 128.333C69.7222 128.278 69.7778 127.222 69.3333 127.667z"/>
<path style="fill:#0d2831; stroke:none;" d="M76 127C76.6836 128.58 76.8048 128.777 78 130C77.3164 128.42 77.1952 128.223 76 127z"/>
<path style="fill:#2a84a1; stroke:none;" d="M77 127L78 128L77 127z"/>
<path style="fill:#25748e; stroke:none;" d="M126 127L127 128L126 127z"/>
<path style="fill:#0b172e; stroke:none;" d="M133 127L133 130C134.015 128.861 134.309 128.388 135 127L133 127z"/>
<path style="fill:#1b4e85; stroke:none;" d="M155 127C156.543 128.267 157.048 128.489 159 129C157.457 127.733 156.952 127.511 155 127z"/>
<path style="fill:#0c1c33; stroke:none;" d="M39 129C40.8092 129.574 41.0688 129.465 43 129C41.1908 128.426 40.9312 128.535 39 129z"/>
<path style="fill:#0c2b44; stroke:none;" d="M70.3333 128.667C70.2778 128.722 70.2222 129.778 70.6667 129.333C70.7222 129.278 70.7778 128.222 70.3333 128.667z"/>
<path style="fill:#39b5dc; stroke:none;" d="M78 128C79.6238 130.044 80.6428 130.896 83 132C81.3761 129.956 80.3572 129.104 78 128z"/>
<path style="fill:#2c8baa; stroke:none;" d="M125 128L124 130C125.263 129.029 125.392 129.306 125 128z"/>
<path style="fill:#0a2034; stroke:none;" d="M159 128C160.693 129.062 162.04 129.52 164 130C162.212 128.578 161.294 128.303 159 128z"/>
<path style="fill:#1e5f74; stroke:none;" d="M78 129L79 130L78 129z"/>
<path style="fill:#1c566a; stroke:none;" d="M125 129L126 130L125 129z"/>
<path style="fill:#0b172d; stroke:none;" d="M34 131C35.8092 131.574 36.0688 131.465 38 131C36.3407 130.594 35.7582 130.691 34 131z"/>
<path style="fill:#16325e; stroke:none;" d="M38 130C39.2484 130.685 39.5484 130.749 41 131C39.7517 130.315 39.4516 130.251 38 130z"/>
<path style="fill:#1e5e72; stroke:none;" d="M79 130L80 131L79 130z"/>
<path style="fill:#2b88a5; stroke:none;" d="M123 130L124 131L123 130z"/>
<path style="fill:#1b5466; stroke:none;" d="M124 130L125 131L124 130z"/>
<path style="fill:#193061; stroke:none;" d="M130 134C131.753 132.67 132.67 131.753 134 130C131.751 131.154 131.154 131.751 130 134z"/>
<path style="fill:#2276bc; stroke:none;" d="M157 130C158.551 136.513 158 143.341 158 150L158 182C165.541 184.53 172.388 188.772 180 191C181.417 186.203 180.616 181.876 180 177C181.186 178.036 181.604 178.339 183 179C179.674 168.489 173.769 159.25 172.209 148C171.557 143.296 172.632 138.667 173 134C167.559 132.327 162.762 130.455 157 130z"/>
<path style="fill:#103454; stroke:none;" d="M162 130C163.769 130.779 165.036 130.912 167 131C165.231 130.221 163.964 130.088 162 130z"/>
<path style="fill:#1b5667; stroke:none;" d="M80 131L81 132L80 131z"/>
<path style="fill:#2a86a3; stroke:none;" d="M122 131L123 132L122 131z"/>
<path style="fill:#0a2127; stroke:none;" d="M123 131L123 133C124.635 132.455 124.455 132.635 125 131L123 131z"/>
<path style="fill:#0d2e48; stroke:none;" d="M167 131C169.206 132.817 171.198 133.394 174 134C171.794 132.183 169.802 131.606 167 131z"/>
<path style="fill:#193264; stroke:none;" d="M29 138C31.1741 135.461 32.7576 133.927 36 133C31.7312 131.397 29.6523 133.91 29 138z"/>
<path style="fill:#195e94; stroke:none;" d="M72 132C72.6836 133.58 72.8048 133.777 74 135C73.3164 133.42 73.1952 133.223 72 132z"/>
<path style="fill:#277c96; stroke:none;" d="M81.6667 132.333C81.2222 132.778 82.2778 132.722 82.3333 132.667C82.7778 132.222 81.7222 132.278 81.6667 132.333z"/>
<path style="fill:#164655; stroke:none;" d="M121 132L121 134C122.635 133.455 122.455 133.635 123 132L121 132z"/>
<path style="fill:#2b479a; stroke:none;" d="M132 132C127.785 136.204 123.95 140.585 118 142L118 145C115.753 145.31 114.826 145.664 113 147C115.163 150.973 114.104 153.817 113 158C122.675 155.509 122.886 163.966 126 171C132.095 162.809 127.831 150.459 128.893 141C129.274 137.605 132.09 135.319 132 132z"/>
<path style="fill:#254991; stroke:none;" d="M31 150C33.25 144.638 31.6266 138.601 34 133C28.4947 136.066 31 144.414 31 150z"/>
<path style="fill:#2952a2; stroke:none;" d="M37 186L37 147C37 143.179 37.6268 138.761 37 135L35 134L36 133C29.4965 136.586 32.2261 148.394 30.4059 155C28.151 163.184 21.5845 172.597 21.4738 181C21.4414 183.452 21.4144 189.264 24.3032 190.208C27.7031 191.32 33.7317 187.059 37 186z"/>
<path style="fill:#287f9a; stroke:none;" d="M83 133L84 134L83 133z"/>
<path style="fill:#236f88; stroke:none;" d="M120 133L121 134L120 133z"/>
<path style="fill:#19588c; stroke:none;" d="M170.667 133.333C170.222 133.778 171.278 133.722 171.333 133.667C171.778 133.222 170.722 133.278 170.667 133.333z"/>
<path style="fill:#0a2539; stroke:none;" d="M74 134C75.6238 136.044 76.6428 136.896 79 138C77.3761 135.956 76.3572 135.104 74 134z"/>
<path style="fill:#236f86; stroke:none;" d="M84 134C85.2228 135.195 85.42 135.316 87 136C85.7772 134.805 85.58 134.684 84 134z"/>
<path style="fill:#21677d; stroke:none;" d="M116 136C117.58 135.316 117.777 135.195 119 134C117.42 134.684 117.223 134.805 116 136z"/>
<path style="fill:#0e2e38; stroke:none;" d="M119.667 134.333C119.222 134.778 120.278 134.722 120.333 134.667C120.778 134.222 119.722 134.278 119.667 134.333z"/>
<path style="fill:#162b56; stroke:none;" d="M128 134L128 136C129.635 135.455 129.455 135.635 130 134L128 134z"/>
<path style="fill:#1c67a2; stroke:none;" d="M173 134L173 138C173.71 136.241 173.71 135.76 173 134z"/>
<path style="fill:#124064; stroke:none;" d="M174 134L174 138C174.71 136.241 174.71 135.76 174 134z"/>
<path style="fill:#0f313c; stroke:none;" d="M86 136C88.5397 138.193 90.6646 138.779 94 139C91.445 137.484 88.907 136.606 86 136z"/>
<path style="fill:#34a4c8; stroke:none;" d="M89.6667 136.333C89.2222 136.778 90.2778 136.722 90.3333 136.667C90.7778 136.222 89.7222 136.278 89.6667 136.333z"/>
<path style="fill:#297f9a; stroke:none;" d="M111 137C112.809 137.574 113.069 137.465 115 137C113.341 136.594 112.758 136.691 111 137z"/>
<path style="fill:#123844; stroke:none;" d="M115.667 136.333C115.222 136.778 116.278 136.722 116.333 136.667C116.778 136.222 115.722 136.278 115.667 136.333z"/>
<path style="fill:#1b3064; stroke:none;" d="M124 140C125.753 138.67 126.67 137.753 128 136C125.751 137.154 125.154 137.751 124 140z"/>
<path style="fill:#2a829f; stroke:none;" d="M90.6667 137.333C90.2222 137.778 91.2778 137.722 91.3333 137.667C91.7778 137.222 90.7222 137.278 90.6667 137.333z"/>
<path style="fill:#38afd5; stroke:none;" d="M92 137C93.5061 137.683 94.3148 137.826 96 138C94.4939 137.317 93.6852 137.174 92 137z"/>
<path style="fill:#0f1e3d; stroke:none;" d="M30 138L30 150C31.5124 146.396 31.5124 141.604 30 138z"/>
<path style="fill:#165988; stroke:none;" d="M79.3333 138.667C79.2778 138.722 79.2222 139.778 79.6667 139.333C79.7222 139.278 79.7778 138.222 79.3333 138.667z"/>
<path style="fill:#26768f; stroke:none;" d="M94.6667 138.333C94.2222 138.778 95.2778 138.722 95.3333 138.667C95.7778 138.222 94.7222 138.278 94.6667 138.333z"/>
<path style="fill:#33a1c4; stroke:none;" d="M96.6667 138.333C96.2222 138.778 97.2778 138.722 97.3333 138.667C97.7778 138.222 96.7222 138.278 96.6667 138.333z"/>
<path style="fill:#2c88a6; stroke:none;" d="M106 138C107.248 138.685 107.548 138.749 109 139C107.752 138.315 107.452 138.251 106 138z"/>
<path style="fill:#0c252d; stroke:none;" d="M108 139C109.846 139.468 111.069 139.301 113 139C110.956 138.226 110.155 138.408 108 139z"/>
<path style="fill:#1a5f96; stroke:none;" d="M172 138L172 151C173.591 147.209 173.591 141.791 172 138z"/>
<path style="fill:#081f31; stroke:none;" d="M173 138L173 150C174.528 146.359 174.271 141.929 175 138L173 138z"/>
<path style="fill:#2080c3; stroke:none;" d="M76 139C76 150.745 75.5018 162.313 75 174L77 174C78.2631 167.948 80.5888 157.929 87 156C85.8261 152.238 85.0437 148.959 85 145L91 146C86.9815 142.752 81.025 140.257 76 139z"/>
<path style="fill:#082233; stroke:none;" d="M80.6667 139.333C80.2222 139.778 81.2778 139.722 81.3333 139.667C81.7778 139.222 80.7222 139.278 80.6667 139.333z"/>
<path style="fill:#143e4b; stroke:none;" d="M94.6667 139.333C94.2222 139.778 95.2778 139.722 95.3333 139.667C95.7778 139.222 94.7222 139.278 94.6667 139.333z"/>
<path style="fill:#20657a; stroke:none;" d="M96.6667 139.333C96.2222 139.778 97.2778 139.722 97.3333 139.667C97.7778 139.222 96.7222 139.278 96.6667 139.333z"/>
<path style="fill:#2b86a3; stroke:none;" d="M98 139C100.332 139.985 102.457 139.981 105 140C102.668 139.015 100.543 139.019 98 139z"/>
<path style="fill:#1f6076; stroke:none;" d="M105 139C106.248 139.685 106.548 139.749 108 140C106.752 139.315 106.452 139.251 105 139z"/>
<path style="fill:#0c142c; stroke:none;" d="M121 139C122.248 139.685 122.548 139.749 124 140C122.752 139.315 122.452 139.251 121 139z"/>
<path style="fill:#104467; stroke:none;" d="M81 140C82.2228 141.195 82.42 141.316 84 142C82.7772 140.805 82.58 140.684 81 140z"/>
<path style="fill:#07161a; stroke:none;" d="M95 140C98.6975 141.552 103.017 141 107 141C103.303 139.448 98.9832 140 95 140z"/>
<path style="fill:#223678; stroke:none;" d="M120 142C121.58 141.316 121.777 141.195 123 140C121.42 140.684 121.223 140.805 120 142z"/>
<path style="fill:#071f2e; stroke:none;" d="M84.6667 141.333C84.2222 141.778 85.2778 141.722 85.3333 141.667C85.7778 141.222 84.7222 141.278 84.6667 141.333z"/>
<path style="fill:#141d42; stroke:none;" d="M116 142C117.659 142.406 118.242 142.309 120 142C118.191 141.426 117.931 141.535 116 142z"/>
<path style="fill:#0c3550; stroke:none;" d="M85.6667 142.333C85.2222 142.778 86.2778 142.722 86.3333 142.667C86.7778 142.222 85.7222 142.278 85.6667 142.333z"/>
<path style="fill:#155f8d; stroke:none;" d="M85.6667 143.333C85.2222 143.778 86.2778 143.722 86.3333 143.667C86.7778 143.222 85.7222 143.278 85.6667 143.333z"/>
<path style="fill:#0e405f; stroke:none;" d="M87 143C88.2484 143.685 88.5484 143.749 90 144C88.7516 143.315 88.4516 143.251 87 143z"/>
<path style="fill:#070917; stroke:none;" d="M108 144C110.646 144.815 113.226 144.213 116 144C113.194 142.854 110.929 143.308 108 144z"/>
<path style="fill:#2d3a91; stroke:none;" d="M107 146L107 165C112.7 163.375 118.217 152.583 113 148L118 143C114.192 143.992 110.983 145.739 107 146z"/>
<path style="fill:#0c3f5c; stroke:none;" d="M90.6667 144.333C90.2222 144.778 91.2778 144.722 91.3333 144.667C91.7778 144.222 90.7222 144.278 90.6667 144.333z"/>
<path style="fill:#031017; stroke:none;" d="M92 144C93.506 144.683 94.3148 144.826 96 145C94.4939 144.317 93.6852 144.174 92 144z"/>
<path style="fill:#1e2864; stroke:none;" d="M107 145C109.529 146.039 111.176 146.093 113 144L107 145z"/>
<path style="fill:#1d8fce; stroke:none;" d="M85 145C85.0268 152.846 88.7929 162.447 97 165L97 146L85 145z"/>
<path style="fill:#105175; stroke:none;" d="M91 145C93.0521 145.874 94.7472 145.953 97 146C94.9479 145.126 93.2528 145.047 91 145z"/>
<path style="fill:#121436; stroke:none;" d="M105 145L105 166C107.643 159.701 105.394 151.746 107 145L105 145z"/>
<path style="fill:#166f9f; stroke:none;" d="M97 146C97 151.531 99.1236 161.678 94 165C95.5061 165.683 96.3148 165.826 98 166C98 159.831 99.398 151.715 97 146z"/>
<path style="fill:#08283a; stroke:none;" d="M98 146L98 166C100.087 161.027 100.087 150.973 98 146z"/>
<path style="fill:#262e79; stroke:none;" d="M106 146C106 150.787 103.571 164.837 109 166C105.47 159.652 108.689 152.408 106 146z"/>
<path style="fill:#204080; stroke:none;" d="M30 150C29.4992 152.686 29.1174 155.27 29 158C30.8253 155.328 31.2318 153.023 30 150z"/>
<path style="fill:#13466e; stroke:none;" d="M173 150L173 153C173.696 151.446 173.696 151.554 173 150z"/>
<path style="fill:#0a2539; stroke:none;" d="M174 150L174 153C174.696 151.446 174.696 151.554 174 150z"/>
<path style="fill:#175382; stroke:none;" d="M174 153L174 159C174.951 156.715 174.951 155.285 174 153z"/>
<path style="fill:#10486b; stroke:none;" d="M83 158L87 157C84.9535 156.249 84.4043 156.344 83 158z"/>
<path style="fill:#11193b; stroke:none;" d="M113 162L119 157C115.395 156.25 114.099 158.868 113 162z"/>
<path style="fill:#175f8f; stroke:none;" d="M82 157L81 162C82.475 160.065 82.791 159.307 82 157z"/>
<path style="fill:#156493; stroke:none;" d="M87.6667 157.333C87.2222 157.778 88.2778 157.722 88.3333 157.667C88.7778 157.222 87.7222 157.278 87.6667 157.333z"/>
<path style="fill:#0d142d; stroke:none;" d="M120 157C120.094 159.205 120.356 160.894 121 163C121.552 160.641 121.138 159.146 120 157z"/>
<path style="fill:#193164; stroke:none;" d="M28 158L27 162C28.303 160.332 28.553 160.008 28 158z"/>
<path style="fill:#061e2e; stroke:none;" d="M88.3333 158.667C88.2778 158.722 88.2222 159.778 88.6667 159.333C88.7222 159.278 88.7778 158.222 88.3333 158.667z"/>
<path style="fill:#1b2e62; stroke:none;" d="M121 158C121.379 160.825 121.997 163.333 123 166C123.696 162.948 122.797 160.522 121 158z"/>
<path style="fill:#0c2f4a; stroke:none;" d="M175 158C175.684 159.58 175.805 159.777 177 161C176.316 159.42 176.195 159.223 175 158z"/>
<path style="fill:#070e1c; stroke:none;" d="M26 159L25 166C26.7265 163.821 27.2732 161.698 28 159L26 159z"/>
<path style="fill:#1977ae; stroke:none;" d="M89 159C90.1034 160.457 90.5434 160.897 92 162C91.1007 159.876 91.1236 159.899 89 159z"/>
<path style="fill:#04151e; stroke:none;" d="M90 161C90.6836 162.58 90.8048 162.777 92 164C91.3164 162.42 91.1952 162.223 90 161z"/>
<path style="fill:#185a8d; stroke:none;" d="M176 161L176 166C176.83 163.97 176.83 163.03 176 161z"/>
<path style="fill:#223e7f; stroke:none;" d="M27 162L24 171C26.4512 168.366 28.1717 165.569 27 162z"/>
<path style="fill:#0e3a58; stroke:none;" d="M81.3333 162.667C81.2777 162.722 81.2222 163.778 81.6667 163.333C81.7222 163.278 81.7778 162.222 81.3333 162.667z"/>
<path style="fill:#0d3f5a; stroke:none;" d="M92.3333 162.667C92.2778 162.722 92.2222 163.778 92.6667 163.333C92.7222 163.278 92.7778 162.222 92.3333 162.667z"/>
<path style="fill:#0a0d20; stroke:none;" d="M111 162C109.376 164.044 108.357 164.896 106 166C109.61 167.144 111.293 165.045 113 162L111 162z"/>
<path style="fill:#0b2b43; stroke:none;" d="M177 163L177 166C177.696 164.446 177.696 164.554 177 163z"/>
<path style="fill:#175e8f; stroke:none;" d="M80 164C79.0143 165.479 79 165.203 79 167C80.2892 165.557 80.4009 165.766 80 164z"/>
<path style="fill:#072636; stroke:none;" d="M93.3333 164.667C93.2778 164.722 93.2222 165.778 93.6667 165.333C93.7222 165.278 93.7778 164.222 93.3333 164.667z"/>
<path style="fill:#0e1834; stroke:none;" d="M122 165C122.684 166.58 122.805 166.777 124 168C123.316 166.42 123.195 166.223 122 165z"/>
<path style="fill:#092436; stroke:none;" d="M80.3333 166.667C80.2778 166.722 80.2222 167.778 80.6667 167.333C80.7222 167.278 80.7778 166.222 80.3333 166.667z"/>
<path style="fill:#0a3044; stroke:none;" d="M94 166C95.5061 166.683 96.3148 166.826 98 167C96.494 166.317 95.6852 166.174 94 166z"/>
<path style="fill:#104063; stroke:none;" d="M178.333 166.667C178.278 166.722 178.222 167.778 178.667 167.333C178.722 167.278 178.778 166.222 178.333 166.667z"/>
<path style="fill:#134d76; stroke:none;" d="M79 167C77.8338 169.74 77.1901 172.029 77 175C78.54 172.401 79.7296 169.964 79 167z"/>
<path style="fill:#1b2f64; stroke:none;" d="M124 167L124 170C124.696 168.446 124.696 168.554 124 167z"/>
<path style="fill:#091023; stroke:none;" d="M23 168L23 171C24.0154 169.861 24.3087 169.388 25 168L23 168z"/>
<path style="fill:#175d8f; stroke:none;" d="M178.333 168.667C178.278 168.722 178.222 169.778 178.667 169.333C178.722 169.278 178.778 168.222 178.333 168.667z"/>
<path style="fill:#0d3653; stroke:none;" d="M179.333 168.667C179.278 168.722 179.222 169.778 179.667 169.333C179.722 169.278 179.778 168.222 179.333 168.667z"/>
<path style="fill:#082031; stroke:none;" d="M180 169L180 172C180.696 170.446 180.696 170.554 180 169z"/>
<path style="fill:#071c2b; stroke:none;" d="M79 170C78.0143 171.479 78 171.203 78 173C79.2892 171.557 79.4009 171.766 79 170z"/>
<path style="fill:#142349; stroke:none;" d="M125.333 170.667C125.278 170.722 125.222 171.778 125.667 171.333C125.722 171.278 125.778 170.222 125.333 170.667z"/>
<path style="fill:#186195; stroke:none;" d="M179.333 170.667C179.278 170.722 179.222 171.778 179.667 171.333C179.722 171.278 179.778 170.222 179.333 170.667z"/>
<path style="fill:#192c5d; stroke:none;" d="M23.3333 171.667C23.2778 171.722 23.2222 172.778 23.6667 172.333C23.7222 172.278 23.7778 171.222 23.3333 171.667z"/>
<path style="fill:#1f3875; stroke:none;" d="M126 171L126 175C126.71 173.241 126.71 172.759 126 171z"/>
<path style="fill:#14517c; stroke:none;" d="M180 172C180.684 173.58 180.805 173.777 182 175C181.316 173.42 181.195 173.223 180 172z"/>
<path style="fill:#0e1732; stroke:none;" d="M21 173L21 176C22.0154 174.861 22.3087 174.388 23 173L21 173z"/>
<path style="fill:#233c80; stroke:none;" d="M23 173C22.0143 174.479 22 174.203 22 176C23.2892 174.557 23.4009 174.766 23 173z"/>
<path style="fill:#0a283d; stroke:none;" d="M182 174L182 177C182.696 175.446 182.696 175.554 182 174z"/>
<path style="fill:#1a659c; stroke:none;" d="M75 175L75 178C76.0154 176.861 76.3087 176.388 77 175L75 175z"/>
<path style="fill:#081f2f; stroke:none;" d="M77 175C76.0143 176.479 76 176.203 76 178C77.2892 176.557 77.4009 176.766 77 175z"/>
<path style="fill:#162853; stroke:none;" d="M127.333 175.667C127.278 175.722 127.222 176.778 127.667 176.333C127.722 176.278 127.778 175.222 127.333 175.667z"/>
<path style="fill:#2b4398; stroke:none;" d="M21 176C17.5648 185.523 10.421 192.656 7 202C13.2101 200.005 18.302 195.176 24 192C21.7542 186.701 22.7493 181.192 21 176z"/>
<path style="fill:#0c142d; stroke:none;" d="M19 177L17 184C18.9464 181.832 19.9843 179.734 21 177L19 177z"/>
<path style="fill:#1e62a0; stroke:none;" d="M59 177C61.6127 178.098 64.1645 177.993 67 178C64.3873 176.902 61.8355 177.007 59 177z"/>
<path style="fill:#1f83c5; stroke:none;" d="M180 177C180.443 182.609 180.709 187.387 180 193C186.321 195.314 191.094 199.937 197 203C195.894 199.05 193.259 196.496 191.209 193C187.753 187.106 185.78 181.031 180 177z"/>
<path style="fill:#134f76; stroke:none;" d="M183.333 177.667C183.278 177.722 183.222 178.778 183.667 178.333C183.722 178.278 183.778 177.222 183.333 177.667z"/>
<path style="fill:#1d5693; stroke:none;" d="M53 178C54.769 178.779 56.0359 178.912 58 179C56.231 178.221 54.9641 178.088 53 178z"/>
<path style="fill:#154571; stroke:none;" d="M58 178C61.6975 179.552 66.0168 179 70 179C66.3025 177.448 61.9832 178 58 178z"/>
<path style="fill:#0b2940; stroke:none;" d="M75.3333 178.667C75.2778 178.722 75.2222 179.778 75.6667 179.333C75.7222 179.278 75.7778 178.222 75.3333 178.667z"/>
<path style="fill:#193566; stroke:none;" d="M132 178C135.959 179.661 140.737 179 145 179C141.041 177.339 136.263 178 132 178z"/>
<path style="fill:#0a2b41; stroke:none;" d="M184 178L185 182C185.393 180.076 185.146 179.64 184 178z"/>
<path style="fill:#164170; stroke:none;" d="M53.6667 179.333C53.2222 179.778 54.2778 179.722 54.3333 179.667C54.7778 179.222 53.7222 179.278 53.6667 179.333z"/>
<path style="fill:#071422; stroke:none;" d="M55 179C59.7238 180.982 65.9098 180 71 180C66.2762 178.018 60.0902 179 55 179z"/>
<path style="fill:#144973; stroke:none;" d="M71 179C72.5061 179.683 73.3148 179.826 75 180C73.494 179.317 72.6852 179.174 71 179z"/>
<path style="fill:#172e5d; stroke:none;" d="M128 179C129.506 179.683 130.315 179.826 132 180C130.494 179.317 129.685 179.174 128 179z"/>
<path style="fill:#07101e; stroke:none;" d="M132 179C136.471 180.876 142.183 180 147 180C142.529 178.124 136.817 179 132 179z"/>
<path style="fill:#133156; stroke:none;" d="M147 179C148.458 180.081 149.248 180.436 151 181C149.457 179.733 148.952 179.511 147 179z"/>
<path style="fill:#1c4982; stroke:none;" d="M46 182C48.3771 181.428 50.558 181.11 53 181C50.266 179.86 48.0026 179.707 46 182z"/>
<path style="fill:#0c243d; stroke:none;" d="M53.6667 180.333C53.2222 180.778 54.2778 180.722 54.3333 180.667C54.7778 180.222 53.7222 180.278 53.6667 180.333z"/>
<path style="fill:#0c2c44; stroke:none;" d="M72 180C73.2484 180.685 73.5484 180.749 75 181C73.7517 180.315 73.4516 180.251 72 180z"/>
<path style="fill:#0c1830; stroke:none;" d="M128 180C129.506 180.683 130.315 180.826 132 181C130.494 180.317 129.685 180.174 128 180z"/>
<path style="fill:#1b4d85; stroke:none;" d="M151 180C152.769 180.779 154.036 180.912 156 181C154.231 180.221 152.964 180.088 151 180z"/>
<path style="fill:#112c4d; stroke:none;" d="M45 182C46.8092 182.574 47.0688 182.465 49 182C47.3407 181.594 46.7582 181.691 45 182z"/>
<path style="fill:#0f2c4c; stroke:none;" d="M154.667 181.333C154.222 181.778 155.278 181.722 155.333 181.667C155.778 181.222 154.722 181.278 154.667 181.333z"/>
<path style="fill:#1d4780; stroke:none;" d="M42 182C43.2484 182.685 43.5484 182.749 45 183C43.7516 182.315 43.4516 182.251 42 182z"/>
<path style="fill:#113357; stroke:none;" d="M156.667 182.333C156.222 182.778 157.278 182.722 157.333 182.667C157.778 182.222 156.722 182.278 156.667 182.333z"/>
<path style="fill:#194c80; stroke:none;" d="M158 182C159.248 182.685 159.548 182.749 161 183C159.752 182.315 159.452 182.251 158 182z"/>
<path style="fill:#0b2f48; stroke:none;" d="M186 182C186.406 184.092 186.217 184.02 188 185C187.309 183.612 187.015 183.139 186 182z"/>
<path style="fill:#0f2342; stroke:none;" d="M40 185C41.58 184.316 41.7772 184.195 43 183C41.42 183.684 41.2228 183.805 40 185z"/>
<path style="fill:#091f33; stroke:none;" d="M159 183C160.543 184.267 161.048 184.489 163 185C161.457 183.733 160.952 183.511 159 183z"/>
<path style="fill:#080d1d; stroke:none;" d="M15 184L15 187C16.0154 185.861 16.3087 185.388 17 184L15 184z"/>
<path style="fill:#223477; stroke:none;" d="M17 184C16.0143 185.479 16 185.203 16 187C17.2892 185.557 17.4009 185.766 17 184z"/>
<path style="fill:#1e437e; stroke:none;" d="M37 186L40 185C38.2218 184.045 37.9786 184.234 37 186z"/>
<path style="fill:#174a7a; stroke:none;" d="M163.667 184.333C163.222 184.778 164.278 184.722 164.333 184.667C164.778 184.222 163.722 184.278 163.667 184.333z"/>
<path style="fill:#0d1c38; stroke:none;" d="M32 189L40 186C36.5872 185.236 34.3406 186.54 32 189z"/>
<path style="fill:#174d7d; stroke:none;" d="M165.667 185.333C165.222 185.778 166.278 185.722 166.333 185.667C166.778 185.222 165.722 185.278 165.667 185.333z"/>
<path style="fill:#155e8c; stroke:none;" d="M187.333 185.667C187.278 185.722 187.222 186.778 187.667 186.333C187.722 186.278 187.778 185.222 187.333 185.667z"/>
<path style="fill:#0e304e; stroke:none;" d="M166 186C167.248 186.685 167.548 186.749 169 187C167.752 186.315 167.452 186.251 166 186z"/>
<path style="fill:#1c65a0; stroke:none;" d="M169 186C170.223 187.195 170.42 187.316 172 188C170.777 186.805 170.58 186.684 169 186z"/>
<path style="fill:#202f6d; stroke:none;" d="M15 187C14.0143 188.479 14 188.203 14 190C15.2892 188.557 15.4009 188.766 15 187z"/>
<path style="fill:#1c376e; stroke:none;" d="M29 190L32 189C30.2218 188.045 29.9786 188.234 29 190z"/>
<path style="fill:#0e3250; stroke:none;" d="M170 188C171.248 188.685 171.548 188.749 173 189C171.752 188.315 171.452 188.251 170 188z"/>
<path style="fill:#13567f; stroke:none;" d="M189.333 188.667C189.278 188.722 189.222 189.778 189.667 189.333C189.722 189.278 189.778 188.222 189.333 188.667z"/>
<path style="fill:#154f7c; stroke:none;" d="M173.667 189.333C173.222 189.778 174.278 189.722 174.333 189.667C174.778 189.222 173.722 189.278 173.667 189.333z"/>
<path style="fill:#141d43; stroke:none;" d="M12 190L12 192C13.6352 191.455 13.4549 191.635 14 190L12 190z"/>
<path style="fill:#182d5c; stroke:none;" d="M20 193C23.3089 194.077 25.9183 192.366 29 191C25.7878 190.144 23.0708 191.911 20 193z"/>
<path style="fill:#0e3452; stroke:none;" d="M174 190C175.458 191.081 176.248 191.436 178 192C176.457 190.733 175.952 190.511 174 190z"/>
<path style="fill:#1b6ca5; stroke:none;" d="M177 190C178.223 191.195 178.42 191.316 180 192C178.777 190.805 178.58 190.684 177 190z"/>
<path style="fill:#115075; stroke:none;" d="M190 190C190.684 191.58 190.805 191.777 192 193C191.316 191.42 191.195 191.223 190 190z"/>
<path style="fill:#131a3e; stroke:none;" d="M11 192C10.0143 193.479 10 193.203 10 195C11.2892 193.557 11.4009 193.766 11 192z"/>
<path style="fill:#09263a; stroke:none;" d="M177 192C178.458 193.081 179.248 193.436 181 194C179.457 192.733 178.952 192.511 177 192z"/>
<path style="fill:#186598; stroke:none;" d="M181.667 193.333C181.222 193.778 182.278 193.722 182.333 193.667C182.778 193.222 181.722 193.278 181.667 193.333z"/>
<path style="fill:#197ab2; stroke:none;" d="M191 193C191.684 194.58 191.805 194.777 193 196C192.316 194.42 192.195 194.223 191 193z"/>
<path style="fill:#051823; stroke:none;" d="M192 193C192.545 194.635 192.365 194.455 194 195L194 193L192 193z"/>
<path style="fill:#0f1834; stroke:none;" d="M20 194L20 196C21.6352 195.455 21.4549 195.635 22 194L20 194z"/>
<path style="fill:#0b314a; stroke:none;" d="M181 194C182.139 195.015 182.612 195.309 184 196C183.02 194.217 183.092 194.406 181 194z"/>
<path style="fill:#1f326f; stroke:none;" d="M17 197L20 196C18.2218 195.045 17.9786 195.234 17 197z"/>
<path style="fill:#176598; stroke:none;" d="M184.667 195.333C184.222 195.778 185.278 195.722 185.333 195.667C185.778 195.222 184.722 195.278 184.667 195.333z"/>
<path style="fill:#13608c; stroke:none;" d="M193 195C193.684 196.58 193.805 196.777 195 198C194.316 196.42 194.195 196.223 193 195z"/>
<path style="fill:#12173a; stroke:none;" d="M8 196L8 199C9.01544 197.861 9.30866 197.388 10 196L8 196z"/>
<path style="fill:#155e8b; stroke:none;" d="M186 196C187.223 197.195 187.42 197.316 189 198C187.777 196.805 187.58 196.684 186 196z"/>
<path style="fill:#1d2c64; stroke:none;" d="M14 199L17 198C15.2218 197.045 14.9786 197.234 14 199z"/>
<path style="fill:#0e4665; stroke:none;" d="M195.333 197.667C195.278 197.722 195.222 198.778 195.667 198.333C195.722 198.278 195.778 197.222 195.333 197.667z"/>
<path style="fill:#1974ab; stroke:none;" d="M189.667 198.333C189.222 198.778 190.278 198.722 190.333 198.667C190.778 198.222 189.722 198.278 189.667 198.333z"/>
<path style="fill:#13193e; stroke:none;" d="M6 199L6 201C7.63516 200.455 7.45495 200.635 8 199L6 199z"/>
<path style="fill:#135b85; stroke:none;" d="M190.667 199.333C190.222 199.778 191.278 199.722 191.333 199.667C191.778 199.222 190.722 199.278 190.667 199.333z"/>
<path style="fill:#0e4663; stroke:none;" d="M196 199L197 200L196 199z"/>
<path style="fill:#115980; stroke:none;" d="M197 200C197.168 202.402 197.197 203.46 199 205C198.614 202.857 198.255 201.75 197 200z"/>
<path style="fill:#232b6d; stroke:none;" d="M5 201L5 205C6.94856 204.064 7.55021 203.608 9 202L5 201z"/>
<path style="fill:#0d3f5b; stroke:none;" d="M192 201C193.663 202.503 194.896 203.199 197 204C195.283 202.16 194.434 201.651 192 201z"/>
<path style="fill:#080a19; stroke:none;" d="M4 202C3.01432 203.479 3 203.203 3 205L7 206L4 202z"/>
<path style="fill:#072434; stroke:none;" d="M199.333 203.667C199.278 203.722 199.222 204.778 199.667 204.333C199.722 204.278 199.778 203.222 199.333 203.667z"/>
</svg>
